<svg width="198" height="51" xmlns="http://www.w3.org/2000/svg"><g fill="#FFF" fill-rule="nonzero"><path d="M197.868 50.199v.708H56.44v-.708h141.428zM85.632 40.637c.459 0 .86.058 1.204.23.402.115.689.345 1.032.632v-.69h1.147v4.768c0 1.034-.286 1.78-.86 2.355-.573.575-1.376.862-2.408.862a3.774 3.774 0 01-1.836-.46c-.516-.344-.917-.746-1.147-1.32h1.262c.172.23.402.459.688.574.287.172.63.23.975.23.63 0 1.147-.173 1.549-.518.401-.344.63-.803.63-1.378v-.058c-.286.23-.63.46-.975.575-.4.172-.802.23-1.204.23-.918 0-1.72-.288-2.351-.862-.63-.574-.975-1.321-.975-2.183 0-.402.057-.746.23-1.149.171-.345.4-.689.688-.919.343-.344.688-.517 1.032-.69.401-.114.86-.229 1.319-.229zm105.583.172l1.721 4.251 1.892-4.25h1.204l-3.383 7.582h-1.262l.917-2.01-2.293-5.573h1.204zm-13.88-.172c.517 0 .976.115 1.32.402.287.287.46.69.516 1.207h-1.089c-.058-.23-.115-.345-.287-.46-.115-.172-.287-.23-.516-.23a.725.725 0 00-.516.23c-.115.115-.23.287-.23.46 0 .344.344.574.975.804.172.057.287.115.401.115.46.172.803.402 1.033.689.23.23.287.575.287 1.034 0 .517-.172.976-.574 1.264-.344.344-.86.517-1.434.517-.63 0-1.09-.173-1.434-.517-.4-.345-.573-.862-.63-1.494h1.09c0 .345.114.575.286.747.172.23.402.345.688.345.287 0 .517-.115.688-.23a.737.737 0 00.23-.575c0-.23-.057-.402-.172-.516-.115-.115-.287-.288-.574-.345a2.79 2.79 0 00-.4-.172c-.46-.116-.747-.23-.861-.345-.23-.173-.402-.345-.516-.575-.115-.172-.172-.402-.172-.689 0-.46.172-.862.573-1.206.344-.288.803-.46 1.319-.46zm-42.381-1.723v4.882c0 .69.114 1.15.344 1.437.23.23.63.402 1.204.402.516 0 .86-.173 1.09-.46.23-.23.344-.747.344-1.379v-4.882h1.204v4.825c0 .517-.057.92-.114 1.206a1.913 1.913 0 01-.287.69c-.287.402-.574.631-.918.804-.401.172-.803.23-1.319.23-.516 0-.975-.058-1.376-.23a2.957 2.957 0 01-.975-.747c-.115-.23-.23-.46-.287-.69-.115-.286-.115-.688-.115-1.263v-4.825h1.205zm-34.124-.115c.86 0 1.606.172 2.294.517.63.402 1.146.92 1.434 1.608h-1.434a2.242 2.242 0 00-.975-.804c-.401-.115-.86-.23-1.319-.23-.402 0-.803.058-1.147.23a2.107 2.107 0 00-.975.574 3.5 3.5 0 00-.688.92c-.173.344-.23.746-.23 1.091 0 .402.057.747.23 1.149.114.345.344.632.63.919.287.23.631.46.976.574.4.173.802.23 1.204.23.459 0 .918-.057 1.262-.23.4-.172.745-.402.974-.69h1.492a3.732 3.732 0 01-1.492 1.494c-.63.345-1.376.518-2.236.518-.63 0-1.262-.115-1.778-.288a4.884 4.884 0 01-1.434-.976c-.344-.402-.63-.804-.803-1.264-.229-.46-.286-.919-.286-1.436 0-.517.114-1.034.344-1.493a3.6 3.6 0 01.974-1.322c.402-.344.86-.632 1.377-.804.459-.23 1.032-.287 1.606-.287zm21.736 1.838c.459 0 .86.058 1.204.23.402.115.688.345 1.032.632v-.69h1.147v5.745h-1.147v-.69c-.286.23-.63.46-.974.575-.402.172-.803.23-1.205.23-.918 0-1.72-.288-2.351-.862a2.878 2.878 0 01-.975-2.183c0-.402.057-.746.23-1.149.172-.345.4-.689.688-.919.344-.344.688-.517 1.032-.69.401-.114.86-.229 1.319-.229zm42.21 0c.574 0 1.09.115 1.606.345.459.23.86.574 1.147.976.23.288.344.575.401.862.115.287.172.69.172 1.092v.114h-5.39c.114.517.344.919.745 1.207.344.287.803.459 1.377.459.344 0 .688-.115 1.032-.287.287-.172.516-.402.745-.69h1.262c-.287.632-.688 1.15-1.205 1.494a3.776 3.776 0 01-1.834.46c-.517 0-.918-.058-1.32-.23a2.407 2.407 0 01-1.032-.632 2.96 2.96 0 01-.745-.977 2.921 2.921 0 01-.23-1.148c0-.403.058-.804.23-1.15a3.77 3.77 0 01.688-.976c.287-.287.688-.517 1.032-.69.401-.171.86-.23 1.32-.23zm-96.292 0c.516 0 1.09.115 1.548.345.46.23.86.574 1.205.976.171.288.286.575.401.862.058.287.115.69.115 1.092v.114h-5.334c.057.517.287.919.688 1.207.402.287.861.459 1.377.459.401 0 .745-.115 1.032-.287.344-.172.574-.402.746-.69h1.319a3.601 3.601 0 01-1.262 1.494 3.779 3.779 0 01-1.835.46c-.459 0-.918-.058-1.262-.23-.401-.115-.746-.345-1.09-.632a3.772 3.772 0 01-.688-.977c-.172-.402-.286-.804-.286-1.148 0-.403.114-.804.229-1.15a3.77 3.77 0 01.688-.976 4.381 4.381 0 011.09-.69c.4-.171.803-.23 1.319-.23zm83.044.172v5.745h-1.147v-5.745h1.147zm35.844-1.895v1.895h.918v.92h-.918v4.825h-1.146v-4.825h-.918v-.92h.918v-1.895h1.146zm-4.473 1.895v5.745h-1.09v-5.745h1.09zm-9.635-.114v1.091c-.516.057-.917.172-1.147.402-.172.23-.287.632-.287 1.149v3.217h-1.147v-5.745h1.033v.632c.229-.23.459-.402.688-.574.23-.115.516-.172.86-.172zm-96.063 0c.86 0 1.491.23 1.95.689.402.402.63 1.034.63 1.896v3.274h-1.146v-3.045c0-.631-.115-1.091-.344-1.379-.287-.287-.63-.459-1.204-.459s-.976.172-1.205.575c-.287.344-.402.861-.402 1.665v2.643h-1.147v-5.745h1.09v.632c.23-.23.516-.46.804-.574.286-.115.63-.172.974-.172zM62.75 38.914v1.034h-2.925v2.298h2.925v.976h-2.925v3.332H58.62v-7.64h4.129zm92.278 1.895l1.663 4.194 1.72-4.194h1.205l-2.524 5.745h-.86l-2.466-5.745h1.262zm-10.095-.114c.804 0 1.435.23 1.894.689.458.402.687 1.034.687 1.896v3.274h-1.146v-3.045c0-.631-.115-1.091-.402-1.379-.23-.287-.631-.459-1.147-.459-.573 0-.975.172-1.261.575-.23.344-.402.861-.402 1.665v2.643h-1.147v-5.745h1.147v.632c.23-.23.459-.46.746-.574.286-.115.63-.172 1.031-.172zm-28.216.114v5.745h-1.147v-5.745h1.147zm-8.259-1.895v2.527c.172-.23.46-.402.746-.574.287-.115.631-.173 1.032-.173.746 0 1.377.23 1.778.69.46.46.688 1.034.688 1.838v3.332h-1.204v-2.987c0-.632-.115-1.092-.344-1.38-.23-.344-.574-.516-1.09-.516-.286 0-.573.115-.802.23-.23.115-.402.287-.574.517l-.172.517c0 .23-.058.574-.058.976v2.643h-1.147v-7.64h1.147zm-22.71 2.757c-.632 0-1.147.172-1.55.575-.4.344-.63.861-.63 1.378 0 .574.23 1.091.63 1.494.403.344.976.574 1.55.574.573 0 1.09-.23 1.49-.574.46-.403.688-.862.688-1.436 0-.517-.229-1.035-.63-1.436a2.258 2.258 0 00-1.548-.575zm36.934 0c-.631 0-1.148.172-1.549.575a1.835 1.835 0 00-.631 1.378c0 .574.23 1.091.631 1.494.401.344.975.574 1.549.574.573 0 1.09-.23 1.49-.574.46-.403.689-.862.689-1.436 0-.517-.23-1.035-.631-1.436a2.258 2.258 0 00-1.548-.575zm42.153-.057c-.517 0-.976.172-1.32.402-.343.287-.63.632-.745 1.091h4.072c-.173-.46-.402-.804-.746-1.091a2.351 2.351 0 00-1.261-.402zm-96.35 0c-.459 0-.918.172-1.32.402-.343.287-.573.632-.745 1.091h4.072c-.115-.46-.401-.804-.745-1.091-.344-.23-.746-.402-1.262-.402zm48.232-2.7v1.206h-1.147v-1.206h1.147zm34.812 0v1.206h-1.147v-1.206h1.147zm31.371 0v1.206h-1.09v-1.206h1.09zm14.969-2.789v.708H56.44v-.708h141.428zM171.002 2.437c.242.009.567.047.805.18a.414.414 0 01.223-.043c.174.018.273.145.335.236.239-.114.486-.026.65.03.101.037.196.07.261.06a1.51 1.51 0 01.208-.033c.159-.017.201-.028.248-.09l.138-.185.205.103c.269.134.577.42.66.754l.086.343h-.319l-.034.049c-.066.1-.186.28-.427.294-.204.039-.397.045-.585.052-.377.013-.617.03-.8.214l-.12.12-.112-.037c.007.181-.088.317-.136.386l-.012.015c-.006.145-.042.283-.074.406-.017.067-.041.158-.047.217.216-.051.411.01.56.059.132.042.217.067.29.043l.108-.037.062.031c.056-.023.158-.09.223-.134l.069-.046h.084c.062 0 .123.002.184.004.216.009.353.01.454-.065l.073-.055h.092c.116 0 .237-.017.366-.036.282-.04.599-.087.904.065l.247.124-.124.247c-.164.329-.456.433-.67.509-.195.07-.3.112-.362.237l-.052.102-.107.036c-.08.027-.147.054-.214.08-.06.024-.12.048-.186.072-.174.157-.396.28-.639.352-.127.111-.25.173-.36.228l-.09.046-.099-.025c-.052-.013-.108.014-.217.072a1.305 1.305 0 01-.203.094l-.087.014c-.116 0-.371 0-.583-.102.07.14.091.283.108.399.015.102.028.19.065.239l.054.074v.124l.001.035a.362.362 0 01.155.186.702.702 0 01.5-.353l.107-.018.034.023c.165-.088.29-.073.38-.027.058-.008.11-.01.156-.014.109-.006.15-.01.19-.036l.1-.068.119.03c.057.014.146-.016.242-.047.112-.036.238-.077.38-.077.125 0 .255-.003.385-.007.416-.011.848-.023 1.23.073l.208.052v.392L175.17 9.46l-.083.014c-.304.05-.555.195-.669.387l-.162.27-.246-.197c-.154-.123-.512-.003-.775.085l-.132.044-.077-.02c-.09-.022-.203-.011-.26.025a.074.074 0 00-.03.031c.001.145.01.344.117.488l.102.137-.061.123c.02.03.062.075.09.104.059.064.125.135.17.223.07.066.146.06.382-.012.147-.044.31-.095.478-.062a.832.832 0 01.542.023l.09.03.037.057.04-.002c.033-.002.07-.003.112-.002.206-.157.445-.139.612-.126a.614.614 0 00.238-.009l.135-.054.05.034c.203-.117.357-.085.465-.016.304-.039.58-.035.936.013.225-.044.648-.11 1.01.083l.317-.137h.057c.197 0 .362.072.508.136.185.08.263.106.344.065a.58.58 0 01.304-.086.739.739 0 01.265-.01c.048.005.128.011.147-.001l.07-.046h.083c.122 0 .223.05.312.095.038.019.1.05.123.051l.195-.195.196.186c.003-.005.076-.01.129-.014l.135-.008c.162-.058.312-.03.425-.01.124.024.173.029.236-.009l.075-.03c.158-.04.329-.024.493-.009.134.013.273.027.38.005l.092-.018.085.042c.02.005.09-.012.138-.024.134-.03.34-.077.554.016.172-.052.316.01.396.043a.42.42 0 00.058.022c.28-.153.65-.038.865-.124l.127-.05.116.07c-.01-.007.031-.03.059-.046.114-.067.404-.235.69.034.047 0 .086-.016.174-.062.086-.044.197-.101.341-.126.024-.042.042-.09.062-.143.023-.06.047-.124.084-.187 0-.13.042-.238.072-.316l.011-.03c-.168-.124-.321-.22-.487-.22h-.092l-.073-.055c-.084-.064-.197-.075-.374-.087a2.353 2.353 0 01-.318-.037l-.22-.044v-.064h-.07l-.054-.006c-.07-.014-.139-.014-.205-.016-.209-.004-.524-.01-.722-.342l-.052-.087.016-.1c.054-.324.272-.481.447-.608.09-.065.175-.127.24-.209l.083-.103h.133c.087 0 .168.007.246.015a.88.88 0 00.318-.007l.15-.038.111.11c.104.105.313.144.596.115a.442.442 0 01.293-.13l.018-.014c.284-.203.394-.588.491-.973-.164-.188-.28-.217-.4-.196l-.061.01-.06-.017a8.717 8.717 0 00-1.168-.222l-.143-.02-.064-.13c-.103-.206-.056-.396-.02-.534.015-.065.032-.132.02-.155l-.071-.144.088-.132c.183-.275.458-.221.59-.195l.043.009c.303-.139.646-.08.978-.025.068.012.137.024.205.033l.158.023.06.148c.013.034.06.061.16.11.122.061.296.148.408.334a.89.89 0 00.15.013c.069-.095.075-.21.079-.4.003-.166.007-.367.093-.569-.055-.273-.145-.452-.293-.582-.18.02-.327-.055-.432-.108-.104-.052-.125-.056-.147-.048l-.115.046-.11-.056c-.03-.011-.128-.004-.188.001-.17.012-.439.034-.633-.155-.29-.054-.307-.273-.307-.322v-.114l.081-.081c.033-.033.062-.075.093-.117.112-.152.31-.415.647-.388.148-.103.287-.091.367-.092h.011l.012-.002.126-.169.188.075c.166.067.343.089.548.113.1.012.204.025.312.044l.149.024.06.139c.025.06.028.067.207.06a.855.855 0 01.414.059c.237-.01.676-.074.908-.4l.047-.067.075-.03c.3-.12.67-.146 1.104-.076.254.012.359.203.41.296a.393.393 0 00.045.072l.08.08v.155l.004.102c.206.132.235.384.25.516a.8.8 0 00.019.116l.014.087c0 .174-.1.28-.17.342l.056.11-.106.111c.028.049.048.11.048.184.042.319-.154.566-.31.765-.111.138-.206.258-.206.384v.156l-.134.08c-.09.054-.104.118-.125.302a1.766 1.766 0 01-.036.218l-.018.074-.054.054c-.167.167-.343.32-.514.47-.35.305-.681.594-.897.959-.001.336-.025.76-.361 1.052 0 .039.003.081.006.127.01.15.024.338-.075.537-.09.14-.19.21-.272.268-.037.026-.094.065-.106.084.004.071.005.17.024.222.025-.003.076-.011.112-.018.15-.026.409-.071.626.125.108.002.201.03.277.05.082.025.132.037.173.027l.099-.025.09.046.053.026c.084-.078.246-.197.543-.098l.061.02.046.046c.073.073.24.089.427.042l.066-.016.067.016c.108.028.2.017.31.006.067-.007.132-.014.197-.014h.076l.066.04c.045.027.15.024.244.02.14-.004.361-.012.532.112l.014-.057h.607a.434.434 0 01.363.016l.053-.034.119.027c.158.039.36-.01.514-.126l.063-.035c.546-.22.843.118 1.04.343.088.1.172.196.26.233l.082.036.046.076c.148.248.142.488.137.7-.002.109-.005.212.013.316l.023.14c.076.105.195.298.049.517l-.049.074-.083.032c-.069.026-.082.036-.106.224-.02.163-.052.424-.301.582-.094.155-.23.231-.323.285-.03.016-.068.038-.079.049v.138l-.17.116c-.227.167-.334.262-.334.416v.17l-.152.076a.758.758 0 01-.647 0l-.153-.076v-.513l.15-.075a.375.375 0 01-.063-.091l-.03-.058v-.065c-.006-.014-.058-.083-.093-.128-.066-.087-.14-.184-.179-.302a1.82 1.82 0 01-.075-.375c-.024-.19-.036-.296-.185-.42l-.043-.036-.026-.052c-.048-.095-.09-.114-.388-.075-.16.02-.339.043-.514-.008a12.347 12.347 0 01-.403-.06 6.59 6.59 0 00-.937-.106c-.159.102-.363.123-.59.057-.062.003-.126.011-.191.019-.242.028-.56.067-.862-.119a.575.575 0 01-.47.065c-.214.041-.392-.111-.49-.191l-.055-.045c-.465.096-.892.058-1.307.02-.209-.018-.406-.037-.601-.037h-.092l-.074-.054-.1.024c-.115.028-.358.087-.55-.085a.773.773 0 00-.146.06c-.146.07-.389.186-.671.016-.234-.14-.51-.105-.71-.043a.25.25 0 01-.027.032c-.09.101-.332.368-.678.194l-.066-.033-.04-.06c-.057-.087-.114-.12-.137-.122l-.169.069c-.393.056-.824-.038-1.013.114l-.107.086-.133-.033c-.6-.15-1.276-.113-1.938-.062l-.002.003c.131.068.22.183.27.251l.022.028.134-.09.1.091c.203-.107.38-.086.53.064l.036.037.021.049c.033.076.056.088.222.118a.915.915 0 01.429.164.38.38 0 01.257.134c.101.014.199.042.294.07.32.09.336.063.37.002l.08-.139h.16c.062 0 .114.013.157.031.161-.076.324.005.425.055.095.049.152.128.207.205.017.024.042.058.062.082l.101-.061.11.047.025-.006c.08-.017.216-.048.376.006l.05.017.04.033c.116.097.214.204.3.3.196.213.306.325.498.325h.147l.082.123c.017.026.057.062.096.098.123.114.38.35.208.695l-.033.066-.06.04a.563.563 0 00-.23.355l-.016.045c-.122.276-.337.462-.525.627-.235.205-.368.33-.368.525v.056l-.023.052c-.094.221-.28.354-.444.47-.26.184-.305.236-.238.419l.033.09-.03.091a.581.581 0 00-.001.227c.004.039.008.078.01.116.092.127.219.235.352.348.057.048.113.096.168.146.24-.007.454.041.65.083.233.05.433.092.614.047l.078-.02.076.026c.043.014.171.014.264.014l.117.001c.08.001.163.005.242.017.18-.059.334.02.407.057l.03.016.035-.012.068.011c.526.088.962.224 1.297.404l.096-.048c.107-.052.251-.101.411-.043a.476.476 0 01.241.204c.054.013.123.01.216.005.157-.007.363-.017.564.093a.521.521 0 01.288.066c.157.086.27.243.32.443l.009.067c0 .291-.201.448-.39.448-.075 0-.096.016-.096.017l-.066.132-.149.021c-.427.054-.94.019-1.449-.1-.256.076-.482-.047-.638-.132-.133-.073-.195-.1-.232-.082l-.07.024c-.302.061-.626.022-.919-.11a15.847 15.847 0 01-.5-.013 8.593 8.593 0 00-.98.004c-.133.1-.292.12-.405.135a.9.9 0 00-.124.02c.016.194-.067.347-.123.452a.984.984 0 00-.039.074l.013.02c.145.289.145.675.145.986v.065l-.03.058c-.143.287-.143.587-.143.968v.17l-.126.064-.004.008c.179.316.065.62-.02.846a1.186 1.186 0 00-.077.258c.104.399-.141.69-.306.885l-.034.04c-.002.216-.097.403-.174.558-.061.122-.119.236-.119.33v.17l-.152.077c-.12.06-.192.243-.192.385v.122l-.089.082c-.21.192-.41.422-.605.644-.43.492-.875 1-1.498 1.231-.324.3-.68.396-.996.48-.114.03-.23.06-.347.102-.183.117-.378.19-.568.259-.184.068-.358.133-.473.225l-.126.1-.149-.06c-.035 0-.072.026-.099.043-.078.048-.206.127-.364.116-.142.09-.28.104-.38.115l-.063.008-.052.012-.087.014c-.36 0-.608.016-.746.222l-.098.148-.176-.03c-.08-.012-.155.022-.275.08-.12.056-.27.127-.449.12l-.08.08-.098.01c-.197.02-.4.027-.605.034-.385.012-.75.024-1.056.126l-.137.045-.115-.086c-.055-.041-.163-.012-.335.04-.083.026-.166.05-.25.067-.395.067-.89.124-1.287-.009-.014-.002-.027-.001-.027-.001a.63.63 0 01-.25.072c-.337.08-.672.087-.997.093-.351.006-.683.013-.945.118l-.135.054-.12-.08c-.124-.083-.219-.064-.454.013a2.175 2.175 0 01-.324.087l-.14.023-.1-.1c-.08-.082-.184-.078-.42-.048-.097.011-.201.028-.314.023-.154.117-.316.102-.402.096-.017-.002-.033-.006-.05-.003l-.097.097-.11-.03c-.124-.018-.256-.024-.387-.03-.265-.012-.538-.024-.79-.12-.315.097-.641.109-.958.121a6.4 6.4 0 00-.49.03l-.117.013-.09-.075c-.138-.116-.32-.14-.529-.167-.143-.02-.289-.038-.433-.088-.188.056-.345-.033-.418-.076l-.127.127-.197-.128a3.602 3.602 0 00-.402-.239c-.236-.128-.48-.259-.684-.476-.25.025-.424-.137-.53-.233-.036-.032-.096-.087-.119-.093h-.352l.073-.287-.023-.024c-.081-.082-.274-.277-.186-.565a.408.408 0 01-.005-.252l-.061-.06.074-.173c.045-.106.068-.238.091-.378.051-.299.113-.666.434-.983.051-.113.153-.184.228-.236a.531.531 0 00.131-.113l.135-.201.496.248.036.042c.34.397.66.771 1.084 1.037l.05.032.033.049c.01.014.02.022.057.044.066.041.225.14.23.363.057.046.121.066.143.059l.133-.04.12.08c.077.06.15.129.22.196.057.057.152.15.191.16l.033-.009h.02c.012 0 .02-.002.05-.015.04-.016.102-.042.18-.042h.102l.078.067c.126.108.24.104.448.088l.095-.007c.164-.01.353-.005.54.105.256.073.518-.01.831.086.193-.02.375.012.538.04.136.024.264.046.354.029l.06-.013.061.015c.03.008.113-.013.174-.027.156-.038.383-.093.602.03.118.013.234.003.365-.01.158-.013.337-.03.534 0h.777l.05.02c.067.027.162.007.27-.016.132-.028.292-.061.456-.014.108-.013.213-.007.308 0 .115.006.223.014.288-.02l.143-.07.105.07a.708.708 0 00.04-.014c.06-.022.174-.064.295-.04.232-.09.442-.103.632-.114.096-.006.193-.011.297-.029l.056-.009.056.014c.02-.009.095-.032.14-.053.114-.05.274-.12.455-.09.15-.056.307-.04.428-.027a.637.637 0 00.172.006l.149-.248.207.145.044-.014c.054-.018.13-.044.218-.047.192-.21.46-.2.62-.195.093.004.181.007.226-.02.158-.12.348-.104.474-.094.03.003.076.008.095.005l.015-.028.041-.082.165-.084c.193-.099.446-.23.748-.265.115-.134.25-.176.347-.205.046-.015.083-.026.112-.045l.07-.046h.082a.363.363 0 00.09-.09c.053-.064.12-.144.216-.208l.099-.047.018-.022c.06-.071.161-.19.331-.198.02-.001.04 0 .063.003a.648.648 0 01.117-.048l.012-.174.259-.02c.164 0 .214-.035.256-.109.074-.281.29-.392.434-.466l.088-.047c.08-.358.334-.57.542-.745.155-.13.303-.254.378-.423l.064-.144.157-.017c.138-.016.187-.082.303-.334.08-.173.17-.37.354-.523.018-.021.02-.07.022-.101.008-.133.022-.376.277-.542.044-.042.046-.115.034-.307-.01-.162-.022-.344.04-.534l.021-.062.046-.046a.597.597 0 01.144-.099.967.967 0 00.063-.035c0-.448.002-.91.06-1.371l.018-.147.023-.011a.844.844 0 01-.004-.055.447.447 0 01-.062-.367 4.873 4.873 0 00-.604-.604h-.537l-.087.08c-.174.157-.354.32-.383.494l-.025.153-.144.058c-.252.1-.509.05-.736.007-.12-.023-.235-.045-.341-.045h-.132l-.082-.102c0 .006-.043.02-.072.03-.132.044-.44.147-.674-.146-.103-.1-.39-.067-.62-.031-.251.24-.517.094-.61.042l-.051-.027c-.184-.01-.376.037-.578.087-.296.074-.629.157-.988.059-.218.125-.436.19-.66.201-.095.041-.19.067-.275.09-.117.034-.228.065-.282.119l-.091.09-.129-.01c-.204-.023-.327.076-.533.245-.193.159-.428.353-.781.383-.15.105-.3.189-.447.27-.295.163-.55.305-.738.588l-.034.042c-.182.182-.407.112-.503.082l-.018-.006-.104.052-.136-.102c-.245-.184-.57-.483-.57-.968V22.5l.052-.072c.077-.109.091-.23.11-.384.024-.21.056-.484.3-.707-.069-.38.26-.633.434-.765.057-.043.114-.086.16-.132l.08-.08h.115c.038 0 .08-.01.125-.02.108-.019.253-.046.412-.021.197-.17.447-.16.607-.152.057.002.143.005.168-.005l.032-.065.052-.036c.18-.121.362-.075.46-.05l.033.01.214-.19a.404.404 0 01.075-.102.804.804 0 01.222-.145l.152-.076.136.102c.024.018.072.018.171.012.149-.009.367-.02.585.126.093.01.26-.023.36-.089l.12-.08.135.053c.21.085.546.08.679-.054l.095-.095.134.017c.238.03.44.006.676-.02.17-.02.348-.04.55-.04h.066l.058.03c-.002.002.056-.007.096-.012.078-.102.216-.179.46-.14l.087-.13.218.11c.006-.005.071-.028.114-.043.14-.048.387-.135.615.021a.868.868 0 01.415.164c.188-.004.244-.02.315-.091l.194-.196.196.196c.07.07.125.127.328-.026l.073-.055h.092l.127.003c.194.007.285.005.337-.06a.155.155 0 01-.022-.04c-.034-.09-.118-.306.04-.5a.306.306 0 00-.119-.162l-.122-.082v-.147c0-.117-.025-.243-.052-.376-.03-.155-.063-.315-.063-.486 0-.18.109-.295.173-.364.005-.004.01-.008.013-.013l-.072-.19.21-.14c.169-.083.185-.22.152-.612-.005-.053-.01-.107-.012-.158-.187-.131-.42-.108-.758-.062-.163.022-.33.046-.498.04-.114.062-.233.07-.319.077a1.097 1.097 0 00-.053.004c-.185.24-.445.321-.642.383-.271.084-.281.104-.281.231l-.014.087c-.054.162-.198.348-.597.305l-.063-.007c-.208-.041-.409.06-.534.144a.747.747 0 01-.321.35l-.195.097-.14-.168c-.06-.072-.166-.12-.278-.17-.238-.107-.675-.304-.47-.925.03-.234.235-.448.444-.448.09 0 .17-.05.302-.137.066-.042.138-.09.22-.132.09-.201.264-.359.422-.5.086-.078.166-.151.212-.212l.083-.11h.137c.156 0 .372-.144.526-.35l.082-.11h.057l.015-.03c-.08-.342.166-.518.277-.597l.062-.046c-.098-.179-.077-.314-.028-.408a.42.42 0 00-.263.154l-.167.202-.21-.157c-.13-.098-.354-.11-.566-.033-.166.107-.357.115-.512.122-.142.006-.238.013-.282.057l-.063.063-.087.014c-.313.053-.498-.148-.61-.268-.03-.033-.077-.083-.097-.092l-.065.022-.227-.036c-.26-.048-.528-.1-.682-.006l-.103.061-.115-.033c-.145-.041-.287-.046-.438-.051-.192-.007-.408-.014-.629-.107a.253.253 0 00-.114.034l-.1.202-.206-.077c-.289-.077-.518-.024-.784.04-.207.048-.44.105-.705.09a.753.753 0 01-.456 0c-.03-.007-.053-.017-.085-.017l-.067.022-.06-.014c-.208-.038-.309.037-.497.197-.153.13-.34.29-.62.32-.142.09-.288.128-.41.16-.188.05-.21.066-.227.115l-.088.262-.26-.088-.04.026c0 .354-.325.451-.482.498a.586.586 0 00-.17.068l-.024.046-.059.095c-.071.12-.171.288-.36.35a4.492 4.492 0 01-.421.442c-.172.164-.333.319-.405.462l-.029.058-.052.04a1.469 1.469 0 00-.166.16c-.163.174-.387.412-.745.412h-.114l-.08-.08c-.012-.006-.07-.014-.108-.02-.163-.022-.467-.065-.59-.433l-.014-.087c0-.271-.083-.502-.297-.824-.184-.227-.144-.482-.119-.65.019-.123.024-.177-.003-.222l-.142-.237.236-.142c.036-.021.046-.041.06-.188.012-.133.03-.315.174-.46l.037-.037.049-.021c.026-.012.036-.02.036-.02-.006.004-.014-.045-.018-.078-.016-.144-.046-.41.205-.61.084-.058.154-.09.225-.12.128-.055.17-.077.208-.17l.032-.08.07-.047c.098-.065.193-.162.294-.265.202-.208.43-.44.775-.512.034-.03.069-.063.104-.096.167-.157.387-.364.687-.385a.895.895 0 01.613-.279c.282-.176.66-.237 1.103-.172l.09.012.066.065c.02.02.04.044.06.07l.008.01c.183-.022.349.043.476.093.048.02.124.05.163.055-.009-.176.085-.313.143-.396.02-.03.054-.08.056-.096l.008-.078c-.256-.217-.266-.56-.273-.821-.002-.09-.004-.18-.018-.262l-.004-.045a.659.659 0 00-.062-.19c-.058-.136-.135-.319-.116-.533a4.4 4.4 0 01-.082-.328c-.041-.185-.074-.331-.159-.473l-.04-.066v-.076a.8.8 0 00-.05-.211c-.044-.14-.099-.31-.065-.5a.595.595 0 00-.085-.19c-.066-.117-.152-.27-.151-.464a.509.509 0 01-.046-.236c-.202-.099-.261-.336-.285-.433a.574.574 0 00-.041-.128l-.195-.195.157-.154a.563.563 0 01-.055-.384 1.719 1.719 0 01-.016-.129l-.008-.064-.158-.053.025-.221c.032-.284.006-.53-.02-.791a5.22 5.22 0 01-.038-.557V2.87l.173-.07c.626-.25 1.25-.308 1.854-.363zM65.356 16.412c.253-.1.54-.21.808-.086.159.075.274.22.344.43l.012.048c.058.407.075.865-.232 1.191-.225.313-.57.269-.798.239-.11-.014-.217-.029-.292-.008-.282.264-.7.28-1.073.292-.238.009-.535.02-.604.112-.013.018-.05.087-.013.28.368.261.449.664.514.994.05.251.098.489.252.662l.103.116-.046.148c-.135.439-.29.858-.438 1.263-.105.285-.209.567-.303.849-.013.069-.029.138-.045.206-.047.205-.068.322-.034.413.546-.046 1.08-.023 1.599.001.436.02.847.038 1.234.014l.125-.008.047.047a.512.512 0 01.189.02c.014.004.034.01.04.01.248-.11.535-.082.788-.057.192.02.373.037.54-.004l.152-.039.11.111c.164.165.305.129.661-.016.325-.131.756-.307 1.187-.004.324-.127.602-.02.814.064.17.066.271.103.372.065.362-.136.663-.053.929.02.147.04.286.077.43.077h.091l.074.055c.05.038.174.024.293.008.127-.015.272-.032.411.003.26.086.63.168 1.041.11l.108-.016.09.063c.378.265 1 .184 1.548.112.138-.018.27-.036.39-.047l.13-.011.09.091c.193.193.41.371.704.379.4-.06.822.069 1.112.223.298-.019.585.021.863.061.218.032.424.061.625.061h.102l.077.066c.103.088.228.078.456.051.253-.03.564-.067.886.118.101 0 .227-.041.359-.084.269-.088.603-.195.911.01l.065.06c.144.186.338.166.748.076.168-.036.345-.078.508-.072.298-.162.572.015.71.107.04.026.1.065.122.07h.132l.072.103c.015.02.02.027.166.004.134-.02.35-.053.541.082.309.05.376-.04.405-.079l.083-.11h.138c.074 0 .151.003.231.007.209.01.423.02.584-.045l.128-.051.118.072c.316.195.735.154 1.177.111.456-.044.926-.09 1.369.1.553.202 1.293.208 1.9.208.203-.075.43-.051.633-.03.243.025.407.036.473-.043l.083-.1h.128c.01-.001.058-.02.09-.034.09-.036.22-.094.38-.086v-.126l.343.137c.06-.06.166-.164.333-.158.118.006.207.07.266.125.11.045.24.153.24.418v.066l-.029.058c-.028.056-.056.119-.085.185-.157.351-.37.827-.84.976-.213.164-.377.359-.55.565-.283.336-.575.683-1.081.877-.22.105-.446.242-.686.387-.67.405-1.424.863-2.451.683l-.155.103-.093-.006c-.247-.016-.509-.004-.785.008-.183.007-.367.015-.55.015-.526 0-1.038-.065-1.458-.382-.512-.091-.89-.342-1.254-.585-.211-.14-.411-.274-.633-.374-.538.002-.972-.224-1.392-.453-.388-.21-.754-.411-1.194-.411h-.054l-.048-.02a9.343 9.343 0 00-.903-.289c-.667-.19-1.358-.387-1.968-.836-.044-.029-.118-.016-.275.021-.203.049-.503.119-.778-.101-.11-.02-.224-.036-.341-.053-.473-.067-1.005-.143-1.376-.459-.12-.016-.242-.036-.366-.055-.32-.051-.652-.103-.945-.103-.214-.015-.4-.019-.583-.022-.594-.011-1.156-.022-1.736-.36-.192-.096-.422-.079-.69-.06-.299.023-.637.048-.958-.128-.2.007-.367-.049-.504-.094-.219-.072-.246-.07-.324.008l-.15.15-.182-.105c-.072-.042-.128-.03-.284.024-.168.057-.435.148-.722-.021-.221.042-.428-.006-.614-.049-.255-.059-.396-.085-.544.026l-.101.077-.124-.028c-1.526-.34-3.01.095-4.26.564l-.034.01c-.575.133-1.041.413-1.581.738l-.3.179c-.046.054-.102.092-.149.126l-.051.036.08.354-.394-.05c-.266-.039-.407.048-.73.265l-.095.06c-.557.248-1.055-.022-1.456-.239a6.817 6.817 0 00-.212-.112l-.152-.076v-.17c0-.11-.031-.246-.064-.391-.071-.317-.16-.712.043-1.067l.079-.14h.16c.13 0 .201-.078.344-.272.142-.193.353-.477.745-.477.178-.063.354-.06.518-.06.3 0 .34-.02.372-.103l.071-.192.204.014c.7.042 1.081-.523 1.416-1.026.178-.268.184-.62.19-.992.007-.42.015-.891.282-1.301.006-.106.019-.208.031-.307.031-.238.056-.43-.024-.614-.247-.169-.309-.443-.351-.63a.866.866 0 00-.06-.199c-.294.311-.725.265-1.05.232a1.633 1.633 0 00-.355-.015l-.156.022-.098-.123c-.06-.075-.163-.167-.272-.265-.278-.249-.593-.53-.646-.902l-.018-.128.087-.096c.438-.482 1.016-.436 1.53-.395.3.024.584.048.829-.028.299-.07.561-.089.815-.107.426-.031.794-.058 1.101-.304l.1-.08.126.025c.067.015.196-.071.304-.138.131-.081.28-.173.449-.207l.06-.012.06.015c.092.021.272-.049.42-.106zM109.81 4.417l.004.132a.442.442 0 01.325.044c.066.023.133.037.202.05.155.033.344.071.505.236.084.015.153.005.172-.01l.08-.08.112.002c.11 0 .213.041.303.077l.072.028a.41.41 0 01.349.032c.017.01.037.025.058.045a.386.386 0 01.073-.008.49.49 0 01.126-.125.482.482 0 01.454-.118l.039-.096.086-.003v-.061h.276c.146 0 .256.043.337.074l.046.018.076-.045.123.018c.065.017.162.02.263.024.19.008.407.017.597.112l.082.041.041.083c.013.025.024.051.034.076.11.002.211.013.358.087l.062.03a.655.655 0 01.057.007v-.184l.329.066c.079.016.158.001.259-.016.082-.014.174-.03.275-.03h.007l-.062-.124.364.18a.39.39 0 01.04.02l.274.137a.495.495 0 01.287-.028.357.357 0 01.206.028h.028v-.39l.418.419a.482.482 0 01.193-.003.538.538 0 01.206.006l.267-.267.121.365c.03.005.072.009.102.012.08.007.172.015.26.045l.188.076h.021c.166 0 .276.11.342.177.02.02.051.05.064.057l.247-.123.033.08a.331.331 0 01.24.08h.03c.09-.005.227-.011.378.086a.48.48 0 01.248.084.43.43 0 01.265-.014h.138l.061.11c.013.017.065.027.137.04a.756.756 0 01.372.146.355.355 0 01.16.02.326.326 0 01.364.137.833.833 0 01.114.184l.026.05a.417.417 0 00.14-.07l.043-.027a.411.411 0 01.248-.15c.007-.102.052-.183.084-.242l.025-.046a.414.414 0 01.247-.225c.166-.052.308.026.402.079a.863.863 0 00.089.044c.15-.049.246-.088.294-.185l.076-.153h.17c.04 0 .081.002.122.005.135.01.156.005.2-.04l.27-.27.17.343c.017.032.17.026.258.023l.128-.003h.198l.034.1c.047.007.1.024.15.06.236.135.252.36.259.47.002.028.005.07.01.08l.152.153-.109.186c-.159.266-.235.598-.194.847l.004.045a.54.54 0 01-.146.374c.059.099.066.191.047.27a.67.67 0 01-.012.273v.276h-.118v.562l-.367-.367a.314.314 0 01-.11.009 1.054 1.054 0 00-.137.189c-.075.118-.16.254-.3.358l-.029.022a.433.433 0 01-.167.136 1.189 1.189 0 01-.216.238.854.854 0 00-.093.093c.037.216-.057.4-.121.53-.04.078-.08.158-.071.2l.015.08-.03.076a.788.788 0 00-.045.402c.003.06.007.12.007.185l-.016.13c.04.148.028.272-.034.371a.656.656 0 01-.137.311c-.016.023-.04.057-.045.07v.065l-.026.038c-.07.138-.182.24-.292.34-.078.07-.195.176-.195.226v.138l-.11.083c-.033.024-.046.059-.074.152-.031.101-.074.24-.19.366 0 .147-.068.263-.111.337-.015.025-.037.061-.04.074l.086.343-.33-.01a.491.491 0 01-.09.02.278.278 0 01-.07.055c-.086.071-.182.116-.262.153-.046.023-.117.056-.133.075v.17l-.06.03a.356.356 0 01-.133.228c-.032.04-.07.083-.11.126-.04.042-.108.116-.133.16l.196.295-.071.143a.753.753 0 01-.076.117l.05.05-.109.217a1.16 1.16 0 00-.024.047l.134.1-.08.19.234.233-.388.155c-.069.028-.129.127-.193.233-.086.141-.182.301-.36.39l-.069.024c-.058.01-.12.069-.192.136-.104.098-.24.226-.44.261-.172.119-.362.114-.493.109-.067-.002-.131-.005-.181.007l-.067.009c-.082 0-.158-.023-.224-.043-.05-.016-.12-.037-.147-.029l-.108.037-.102-.051c-.012-.003-.036-.003-.059-.005-.057-.004-.136-.01-.22-.04a.407.407 0 01-.253.13c-.176.03-.35.015-.517 0a2.177 2.177 0 00-.306-.014c-.1.079-.258.139-.472.014l-.115.115-.195-.195c.054.054.12.06.143.054l-.12-.249-.045.272c-.294-.049-.612-.002-.916-.047-.14.032-.252.017-.345.005a1.438 1.438 0 00-.061-.008c-.171.085-.317.07-.427.06a.943.943 0 00-.099-.006c-.123 0-.206-.07-.25-.106a.045.045 0 01-.007-.007.955.955 0 00-.25.084l-.085.042-.092-.018c-.222-.045-.568-.004-.797.054l-.119.03-.101-.068c-.005.002-.063.01-.1.014a.945.945 0 01-.356-.002c-.082.035-.166.057-.243.078-.056.015-.14.037-.165.053l-.035.03a.646.646 0 01-.237.094.543.543 0 01-.04.277l-.008.025.028.084-.05.102-.006.01c.107.13.089.308.08.395-.002.021-.006.042-.006.061l.064.13-.101.136c-.057.076-.074.182-.093.304a1.707 1.707 0 01-.062.282c.032.121.023.227.017.304a.436.436 0 00-.003.076l.08.08v.11a.62.62 0 01-.155.407c.004.053.002.101 0 .141l-.002.044.23.173-.21.234a1.83 1.83 0 01-.127.114c.112.086.15.184.162.254a.432.432 0 01-.085.323c.05.094.06.176.049.246a.812.812 0 01.059.051l.14.14-.09.179a.832.832 0 01-.1.15c-.042.053-.042.056-.042.071v.114l-.063.063.018.082c.025.098.082.326-.065.5.01.17.021.421-.21.597a1.1 1.1 0 00-.104.222l-.002.007c.064.129.087.249.105.344.012.06.022.113.038.146.14.163.127.356.119.473a1.237 1.237 0 00-.003.042l.171.085-.075.227c-.029.085.01.204.057.343l.014.087c0 .247-.16.376-.247.445a.932.932 0 00-.04.034c.003 0 .008.01.015.029.017.04.043.102.043.181v.148l-.123.082a.917.917 0 01-.289.111c-.03.008-.074.02-.104.03l.017.107-.098.12a.45.45 0 01-.31.138h-.113l-.08-.08a.472.472 0 01-.126-.432v-.001l-.035-.023c-.1-.063-.4-.257-.245-.647l.01-.028a.395.395 0 01-.256-.322.862.862 0 01-.019-.396l.008-.084-.019-.003-.08-.041c-.142-.095-.455-.305-.514-.678-.266-.3-.056-.579.017-.676a.923.923 0 00.017-.023c-.102-.126-.102-.272-.102-.347v-.004l-.098-.057-.016-.168c0-.106-.041-.202-.09-.313a2.223 2.223 0 01-.068-.174l-.014-.087c0-.103.029-.19.052-.26l.01-.032c-.093-.006-.23-.033-.315-.162-.071-.108-.076-.241-.014-.396l.044-.11.11-.043c.022-.036-.012-.162-.03-.23l-.008-.029c-.055-.094-.099-.26.082-.45l-.029-.086.12-.12v-.014a.817.817 0 01.012-.07.839.839 0 01.135-.35c-.012-.223-.058-.452-.106-.692-.038-.107-.014-.238.003-.333l.008-.045-.074-.05v-.147c0-.085.027-.161.051-.228l.002-.005-.023-.022c-.102-.093-.292-.267-.188-.58l.037-.111c-.013-.118-.005-.305.186-.432l.058-.035c0-.012 0-.025.002-.04-.168-.009-.24-.007-.286.04l-.06.058-.081.017a1.106 1.106 0 01-.438-.02c-.168-.032-.195-.027-.224.002l-.12.12-.064-.021c-.054.068-.14.167-.287.176l-.114.215-.264-.26a.709.709 0 01-.083-.11c-.248.103-.612.122-.85.122-.366 0-.553-.053-.658-.122-.028.006-.062.026-.084.039-.103.06-.266.152-.485.105-.196.048-.657.13-.88-.092l-.18-.18a5.22 5.22 0 01-.085.005c-.109.006-.15.01-.19.037l-.068.047h-.084c-.014.002-.059.029-.088.046a.697.697 0 01-.37.126h-.03a.377.377 0 01-.07.04.298.298 0 01-.17.094l-.02.038h-.17a.374.374 0 01-.09-.011c-.074.05-.152.072-.202.086l-.006.002-.005.008-.06.041a.365.365 0 01-.293.062.345.345 0 01-.09-.037l-.15.129-.162-.339c-.017-.042-.05-.06-.194-.108a1.187 1.187 0 01-.257-.108c-.085 0-.158-.018-.218-.033-.094-.022-.12-.026-.157-.008l-.058.029h-.13l-.066-.002c-.251-.006-.408-.005-.515.128l-.082.104h-.133c-.15 0-.356 0-.486.043-.357.09-.514-.192-.573-.298l-.033-.057-.331-.11.228-.307c.03-.04.03-.076-.008-.227l-.022-.091a.963.963 0 01-.025-.205l.015-.088c.07-.21.195-.36.306-.493.101-.12.18-.216.2-.327l.017-.109.089-.066c.024-.027.027-.058.028-.078a.65.65 0 01.079-.293c0-.106.027-.204.051-.288.013-.045.032-.111.03-.134l-.014-.043.001-.013-.024-.03c-.053-.066-.15-.186-.156-.364a.608.608 0 01-.036-.328c.002-.02.005-.041.005-.06l-.077-.156.14-.14c.048-.048.052-.082.058-.192.006-.096.013-.219.075-.349a.483.483 0 01-.156-.44.676.676 0 00-.206-.467l-.14-.141.068-.136-.01-.023c-.013-.034-.03-.075-.04-.122-.08-.11-.09-.208-.098-.277-.003-.03-.005-.052-.013-.08l-.023-.038c-.048-.079-.128-.21-.127-.38a2.305 2.305 0 00-.083-.073c-.141-.122-.345-.296-.365-.582a.338.338 0 01-.167-.296v-.276h.136l.007-.02c.03-.06.07-.108.103-.151l.041-.054a.964.964 0 01-.083-.287.372.372 0 00-.043-.151l-.125-.188.051-.052c-.114-.164-.098-.35-.09-.44l.003-.047c0-.173.09-.296.161-.382a.718.718 0 01-.304-.3l-.061-.123.061-.123.019-.035a.436.436 0 01-.163-.359v-.147l.123-.082a.082.082 0 00.036-.047.43.43 0 01-.03-.035l-.09-.042c-.065-.028-.198-.086-.228-.245a.307.307 0 01.076-.262l-.333-.334h.664a.584.584 0 01.29-.046c.133-.116.18-.165.18-.253v-.276h.266a.766.766 0 01.035-.156l.03-.09.079-.052c-.001-.005.004-.02.01-.035.04-.101.134-.33.484-.354a.414.414 0 01.402.07c.078-.053.23-.134.411-.043l.072.051a.235.235 0 00.077.051l.302-.303.152.152a.423.423 0 01.325-.068c.043.01.084.028.122.053a.481.481 0 01.081-.051l.143-.072.133.089c.122.081.2.18.263.259l.006.007.008-.01a.824.824 0 01.259-.245.358.358 0 01.087-.115c.133-.117.292-.097.386-.085l.013.002.078-.08.169.069c.105.041.233.007.43-.055.09-.028.182-.057.274-.075l.053-.005c.068 0 .32-.023.562-.044.828-.075 1.162-.094 1.33-.075.006-.007.028-.02.044-.03.184-.11.345-.138.48-.084a.39.39 0 01.029-.032l.12-.12.16.054c.015 0 .083-.021.124-.034.048-.015.1-.03.154-.04l-.054-.055h.333l.32-.107.012.107c.593 0 1.207-.053 1.876-.164a.342.342 0 01.226.003c.188-.063.38-.126.593-.126.132 0 .224.054.287.105l.32-.192zM78.256 9.618c.341-.06.628-.01.853.149.423.3.516.906.598 1.441.037.188.057.48.032.824l.12-.043.095-.017c.096 0 .206.031.334.068.058.017.156.044.187.047.044-.002.286-.034.446-.055.312-.042.456-.06.524-.06.092 0 .209.021.312.04.042.008.079.016.1.018h.85c.114 0 .23.05.366.107.052.023.139.06.168.066.001-.006.108-.046.172-.07.171-.064.282-.104.384-.104h1.032c.054-.005.275-.086.42-.183l.07-.047h.982l-.121.363c-.256.768-1.645 1.682-1.982 1.682h-.917c-.066 0-.237-.02-.753-.088a20.825 20.825 0 00-.685-.084l-.27.084c-.372.115-.673.203-.873.203-.072 0-.23-.027-.738-.12-.176-.031-.4-.072-.535-.094v.053c0 1.027.696 1.506 2.19 1.506a2.5 2.5 0 00.22-.05c.163-.04.268-.066.354-.066a1.3 1.3 0 01.334.069c.048.014.125.035.166.044a3.59 3.59 0 00.237-.112c.226-.114.35-.173.467-.173.1 0 .22.045.65.222.144.06.352.145.442.174l.047-.022a.643.643 0 01.295-.086h2.04l-.469.47c-1.284 1.286-2.443 1.46-3.407 1.46-.054 0-.105-.013-.337-.074a5.042 5.042 0 00-.416-.1c-.05.005-.421.067-.692.112-.55.092-.721.119-.791.119-.177 0-.589-.137-.82-.219-.074.063-.162.334-.167.462 0 1.457.407 1.733 1.159 1.733.105 0 .33-.078.511-.14.228-.08.424-.147.579-.147h.054l.05.02c.576.236 1.293.493 1.444.497.05-.003.32-.05.497-.082.364-.065.518-.09.593-.09.14 0 .258.081.408.184.09.063.216.15.29.168.022.005.115.003.19.002.286-.005.677-.011.923.25.142.15.203.356.184.611l-.01.13-.106.074c-.977.691-1.759.688-2.512.684l-.17-.001c-.063 0-.254-.021-.835-.088-.3-.035-.712-.083-.774-.085l-.191.038c-.25.048-.407.077-.494.077-.076 0-.21-.028-.839-.18a14.777 14.777 0 00-.726-.165c-.317 0-.359.905-.375 1.245a1.827 1.827 0 01-.03.327l-.018.074-.034.035c-.026.043-.071.135-.132.251-.631 1.232-.84 1.515-1.115 1.515a.684.684 0 01-.23-.043.203.203 0 00-.057-.014h-.275v-1.827c0-.202-.352-1.188-.561-1.562h-2.5c-.547.197-2.738.976-3.26.976h-1.261c-.345 0-.517-.344-.56-.639l-.002-.039c0-1.278.75-2.171 1.824-2.171.14 0 .336.068.698.198.307.11.727.262.907.262h3.04c.318 0 1.313-.167 1.503-.34v-1.108c0-.07.015-.172.032-.275.012-.07.025-.138.025-.184 0-.247-.216-.357-.298-.357h-1.032c-.578 0-2.472.474-3.604.758-.498.124-.787.196-.962.235a.81.81 0 01-.063.176l-.17.343-.271-.271c-.215-.215-.425-.272-.63-.328-.317-.086-.712-.193-.712-.901 0-1.08 1.623-1.655 1.938-1.655.07 0 .274.032.99.147.354.058.839.136.912.14.133 0 .261-.027.438-.066.314-.07.743-.163 1.56-.163h1.09c.256 0 .928-.48.989-.668-.003-.348-.342-1.261-.534-1.309-.056.005-.46.067-.757.112-.594.092-.777.119-.846.119-.083 0-.196-.025-.374-.064l-.072-.016a1.844 1.844 0 00-.187-.035c-.042 0-.16.01-.297.02-.222.017-.473.037-.618.037-.794 0-1.507.256-2.197.504-.595.213-1.158.415-1.703.415-.4 0-1.078-.143-1.078-.678 0-1.062 1.72-2.113 2.34-2.113l.07.009c.479.125 1.183.305 1.324.334l4.233-.153c-.037-.85.514-2.078.86-2.472.065-.075.165-.172.303-.187zm65.967-4.503l.16.16c.043.044.08.088.118.133l.051.06.258-.172.13.26c.024.007.049.017.072.03.008-.003.015-.006.024-.007.189-.045.322.072.394.135.012.01.023.022.035.03l.064.047c.29.291.433.718.365 1.093a.32.32 0 01-.03.104c.19.153.229.338.254.462.01.05.017.078.025.097.063.029.09.032.137.016l.282-.095.046.185a.644.644 0 01.208.017c.224-.19.4-.196.529-.137a.34.34 0 01.157-.023l.306-.184.145.097a1.769 1.769 0 01.148.112l.16-.158.142.144.418-.42v.39h.23v.1a.752.752 0 01.241-.066c.022-.003.044-.005.062-.01l.177-.09.065.075a.4.4 0 01.298.033.486.486 0 01.283.026l.023-.047.246.123c.126.062.232.106.332.143.081-.065.202-.103.378-.087l.073-.435.379.373.044.017c.02.008.046.017.073.03l.09.03c.057-.055.164-.143.313-.119a.343.343 0 01.076.021l.346-.172.1.3a.241.241 0 00.017.045.437.437 0 01.36.026c.127.082.19.165.243.233l.025.033.11-.043.153.116a.493.493 0 01.138.308c.132-.015.279-.029.421.043l.342.17-.194.194a.33.33 0 01.005.055v.383l-.208-.07a.302.302 0 01-.208.103.364.364 0 01-.154.048c-.063.137-.202.183-.25.199l-.108.036-.101-.05c0 .002-.013.01-.03.02l-.06.026c-.115.05-.31.138-.519.054l-.094.044c-.126.062-.429.21-.666.012a.349.349 0 01-.217.011c-.17.034-.319.008-.445-.013a.868.868 0 00-.234-.02c-.213.083-.399-.01-.501-.062a.977.977 0 00-.062-.03l-.165.102-.176-.139c-.11-.11-.29-.095-.555-.06-.075.01-.147.02-.213.024l-.123.06c-.104.1-.315.16-.81.05l-.04-.009-.016.016h-.174c-.142-.004-.39-.026-.547-.18l-.135-.014c-.096-.012-.24-.029-.267-.002l-.046.046-.062.02a.39.39 0 01-.27-.007v.214l-.221-.055a.431.431 0 01-.281.25.496.496 0 01-.346.097c.03.034.055.074.073.119a.367.367 0 01.279.024c.097.049.162.114.215.166.028.028.054.055.071.063l.342.171-.162.163c.089.016.158.065.196.091l.007.006h.067l.155.155c.3 0 .523.244.68.416.07.077.142.157.204.2.495.166 1.004.342 1.474.773a.676.676 0 01.289.12c.058.037.095.06.124.06h.17l.076.152c.132.265.237.364.384.364h.054l.049.02c.188.076.32.235.435.375.053.064.14.17.18.186l.329-.066-.01.13c.048.009.087.028.115.044h.395l-.177.266c.142.061.237.162.31.239a.53.53 0 00.1.09l.108-.035.128.044c.122.06.215.163.298.253.045.05.14.153.177.158.304-.178.54-.01.652.07l.054.039.219-.132.12.19c.237-.059.406.007.526.189a.31.31 0 01.166.124l.058.004c.103.007.248.016.387.103.119.016.213.09.268.133a.492.492 0 00.07.05h.114l.06.077c.072.073.12.158.167.24a.59.59 0 00.135.185l.279.186-.04.04a.38.38 0 01.084.11l.029.073a.599.599 0 01.253.107l.018-.018.151.038c.188.047.3.17.381.26l.27.091c.11.036.192.103.258.155l.036.028c.026.02.053.04.066.042l.15-.038.114.11c.06.06.163.107.261.153.037.017.075.034.111.053h.064c.141 0 .246.076.327.15l.006-.012.183-.023c.053 0 .115.009.175.04l.109.022c.2.04.325.175.41.278l.078-.079.197.139c.119.089.223.178.327.267l.098.085a.843.843 0 01.092-.062.34.34 0 01.306-.103l.023-.037.222.038c.137.046.225.151.301.244.031.037.083.1.106.111l.08-.024c.12 0 .214.056.284.119l.035-.07.228.082.038-.028c.067-.048.225-.162.407-.118.154-.018.306.052.464.21l.08.081v.112l.011.014h.118l.2-.193.15.193h.105l-.049.072c.053.062.127.11.204.16.116.074.246.158.316.304a.278.278 0 00.056.03.61.61 0 01.195.123h.53v.095c.11.039.188.129.241.19l.08.08.023.198v.276h-.151a.347.347 0 01-.204.152.325.325 0 01-.366.053.59.59 0 01-.389.09l-.06.18-.249-.02c-.08-.018-.176.023-.287.07-.118.05-.251.107-.404.107h-.082a.335.335 0 01-.13.058.55.55 0 01-.175.095.282.282 0 01-.013.035l-.032.099h-.03a.407.407 0 01-.032.034l-.14.14-.177-.088c.016.008-.027.033-.056.05-.033.019-.074.042-.122.064l.034.103-.36.041c-.111.12-.29.288-.578.288h-.022a.342.342 0 01-.29.064.783.783 0 00-.05.022c-.034.015-.072.032-.118.049l-.414.415-.082-.314a.358.358 0 01-.03-.006.524.524 0 01-.255.057h-.012v.227l-.398-.199c-.03-.015-.068-.024-.116-.036l-.102-.028a.728.728 0 01-.114.007h-.02s.033-.003.07-.03a.74.74 0 01-.062-.028l.027-.055-.012-.012a.317.317 0 01-.35.168.487.487 0 01-.28-.072h-.015l-.058-.029a.35.35 0 01-.029-.015l-.002.005-.016-.015a.553.553 0 01-.13-.118h-.205v-.219l-.042-.042a.318.318 0 01-.394-.05l-.034-.041c-.034-.051-.082-.09-.144-.139-.028-.023-.06-.048-.092-.076l-.667.333.27-.54a1.71 1.71 0 01-.16-.094c-.038-.023-.094-.058-.111-.06l-.151.038-.063-.06-.105.106-.17-.342c-.01-.012-.06-.04-.095-.058-.1-.056-.301-.167-.347-.406a.427.427 0 01-.181-.045 1.286 1.286 0 01-.21-.169l-.037-.035-.07.046-.142-.072c-.31-.155-.338-.371-.339-.49l-.08-.048-.005-.035a.34.34 0 01-.036-.02l-.323.323v-.519c-.13-.04-.222-.137-.273-.29l-.029-.086c-.008-.013-.018-.022-.028-.033-.228-.008-.367-.19-.43-.272a1.56 1.56 0 00-.039-.05l-.29.059v-.192a.375.375 0 01-.107-.067.657.657 0 01-.22-.089h-.142l-.076-.152c0 .004-.011-.002-.021-.009-.025-.016-.058-.038-.092-.068h-.247l-.082-.123c-.058-.087-.205-.18-.374-.236l-.066-.032c-.177-.119-.352-.27-.442-.563-.085-.106-.173-.187-.282-.285l-.081-.074c-.018.004-.032.004-.054.005-.169 0-.265-.122-.317-.187-.015-.02-.04-.052-.052-.059h-.199l-.05-.162-.06-.044c-.082-.058-.2-.142-.244-.284a.351.351 0 01-.07-.087.815.815 0 01-.041-.014l-.022.022-.178-.09a.832.832 0 01-.337-.329c-.011-.018-.026-.042-.037-.056a.322.322 0 01-.16-.097l-.158.052-.112-.196c-.073-.128-.219-.218-.374-.312-.202-.124-.429-.263-.537-.52a.752.752 0 00-.096-.043c-.117-.046-.31-.121-.387-.363a.622.622 0 01-.349-.153c-.368-.148-.642-.503-.738-.953a.789.789 0 00-.113-.017c-.144-.018-.386-.046-.51-.295-.059-.136-.138-.181-.298-.264-.153-.08-.344-.178-.488-.395-.048-.08-.081-.093-.161-.123a.636.636 0 01-.324-.229 1.915 1.915 0 01-.07-.045c-.028-.019-.07-.046-.09-.055h-.085c-.005.006-.008.013-.012.019l.013.039c.029.096.06.267-.109.435a.892.892 0 01-.049.209.746.746 0 00-.014.045l.029.042v.084a.406.406 0 01-.005.061c.2.252.146.467.09.579l-.032.066-.06.04c-.007.02-.002.123.002.191.002.051.005.102.005.154v.114l-.08.081c-.057.057-.083.133-.123.263-.019.059-.038.122-.065.19.05.256-.124.46-.22.564a.65.65 0 01-.047.318l-.006.015.131.198-.229.153c-.035.023-.051.052-.087.128-.023.046-.049.1-.087.154a.708.708 0 01-.185.373l-.095.094a.454.454 0 01.003.055v.446l-.163-.082-.01.022v.097l-.11.082c-.044.034-.089.065-.133.097-.183.128-.289.209-.35.36l-.069.173h-.028a.313.313 0 01-.19.162c-.015.012-.042.043-.062.065a.631.631 0 01-.3.216.456.456 0 01-.189.092.4.4 0 01-.097.067l-.177.09-.032-.032-.006.006-.27.27-.071-.142a.351.351 0 01-.031.13.4.4 0 01-.251.21l-.088.015c.004 0-.018.018-.035.03-.048.036-.118.09-.214.12a.338.338 0 01-.017.094c-.037.113-.126.198-.262.253l-.114.045v.422l-.332-.333h-.115c-.15 0-.282-.066-.388-.12l-.047-.023-.074.06.537.537-1.022-.292c-.148-.042-.274.026-.485.151-.093.055-.188.11-.293.156-.378.482-1.428.738-1.612.738h-.083l-.07-.046c0 .003-.038.009-.066.013a.766.766 0 01-.409-.024c-.136.003-.371.016-.63.03-.702.037-1.04.05-1.217.039a1.444 1.444 0 00-.115.097c-.15.135-.45.403-.848.193l-.088.028c-.07.023-.136.046-.201.06-.203.147-.449.144-.65.14-.114 0-.222-.003-.314.019-.082.054-.207.09-.37.012l-.372.24-.002-.287-.013-.004a.594.594 0 01-.287.064h-.114l-.022-.022a.355.355 0 01-.17.05c-.16.067-.338.016-.533-.152l-.009-.008-.011.011-.116.006c-.18 0-.295-.108-.363-.173l-.013-.013-.004.002-.079.012c-.187 0-.273-.101-.308-.162a.31.31 0 01-.043-.183h-.73l.757-.504c.149-.1.31-.262.416-.369l.12-.119a.66.66 0 01-.036-.16c-.098-.139-.107-.296-.112-.4-.003-.033-.005-.083-.01-.099l-.57-.227.407-.182a.334.334 0 01-.145-.41l-.178-.118.237-.238c.023-.023.038-.047.051-.066.177-.265.388-.212.496-.157l.05.028.045-.045v.064l.02.01a.37.37 0 01.14.122c.038.01.078.028.12.055l.285-.142.009-.172.115.11.225-.113-.111.223.141.136c.165-.076.321-.076.502-.076h.661l-.114.115h.289l-.04.04c.057.004.12.016.182.045l.028-.085h.198c.099 0 .206.033.279.115a.37.37 0 01.085.01.14.14 0 00.02-.03l.077-.152h.067v-.058h.275c.108 0 .222-.006.338-.012.215-.011.435-.023.651-.003.173-.138.364-.138.487-.138.034 0 .085 0 .1-.005a1.14 1.14 0 01.352-.03c.12.003.153 0 .171-.018l.27-.27.117.234a.423.423 0 01.107-.013l.404-.27.239.191c.396-.41.749-.505 1.025-.488a.316.316 0 01.327-.026c.13-.108.293-.204.5-.234.094-.086.205-.133.306-.176l.091-.04c.002-.19.096-.355.16-.468.023-.04.047-.078.059-.113l.062-.188h.199a.423.423 0 00.09-.047c.113-.07.316-.19.586-.079.088-.006.172.002.248.01.045.005.081.008.111.009-.01-.063-.013-.123-.016-.178-.004-.06-.007-.123-.019-.157l-.053-.162.12-.12.014-.048c.029-.092.088-.285.323-.363l.076-.026.077.02c.05.012.113.01.18.008.126-.005.305-.01.47.092l.035-.014c.082-.033.257-.104.434-.048a.227.227 0 00.004-.015c.026-.113.082-.346.329-.42.024-.024.048-.043.067-.059-.053-.16-.124-.474.219-.66.267-.202.327-.528.376-.908-.069-.156-.034-.327-.01-.45.01-.045.02-.09.02-.13v-.093l.053-.07c-.008.008-.022-.025-.03-.05-.04-.118-.127-.375.089-.602a.224.224 0 01-.005-.02c-.025-.092-.073-.275.009-.452a.523.523 0 01-.012-.158l-.066-.033a.496.496 0 01-.239-.264.765.765 0 01-.097.006l-.13-.016c-.142.075-.273.086-.39.03a.501.501 0 01-.25-.049c-.264.225-.614.177-.845.145-.168-.023-.326-.045-.404.011l-.073.037c-.248.083-.49.125-.738.129a.705.705 0 01-.298-.01.71.71 0 00-.073-.011l-.06.05c-.287.144-.565.144-.81.144l-.067-.009a.331.331 0 00-.12.025c-.103.032-.254.079-.428.024a.667.667 0 01-.273.175l-.138.046-.115-.087c-.005-.006-.04.01-.063.02a.927.927 0 01-.204.077c-.102.101-.217.15-.306.187-.045.02-.094.038-.141.07l-.153.102-.153-.102c-.024-.017-.062-.041-.21.057l-.133.089-.143-.072a.341.341 0 01-.189-.273.916.916 0 01-.234-.056l-.188-.063v-.105a.563.563 0 01-.14-.105h-.019l-.082-.123c-.092-.14-.1-.293-.107-.416-.004-.068-.01-.153-.03-.174l-.081-.08v-.115c0-.165.055-.312.103-.441a.83.83 0 00.069-.248v-.114l.08-.081c.054-.054.099-.12.145-.183.148-.21.372-.522.809-.473.026-.002.062-.01.099-.018.118-.027.288-.064.468.016.109-.01.227-.041.351-.074.278-.073.616-.162.963-.015a.486.486 0 01.317.046l.136-.227.207.192c.06-.011.17-.035.287.003.155-.037.272-.037.37-.037h.492l.055.082.098-.005.076-.004.705.091a.483.483 0 01.291-.002c.117-.012.222-.005.31 0 .125.01.198.013.259-.018l.058-.03h.065c.179 0 .296.08.37.164.12.002.235.023.339.041.193.035.316.054.43-.003l.033-.015a.9.9 0 00.032-.056c.046-.085.123-.228.292-.274a.37.37 0 01.111-.014.681.681 0 010-.097l-.012-.024c-.145-.283-.293-.577-.318-.99-.148-.182-.13-.418-.121-.53l.003-.05v-.115l.206-.205c.12-.117.228-.214.375-.312l.26-.174.092.185a.475.475 0 01.316-.003c.11-.01.255-.05.365-.124l.188-.124zm-39.502 2.49c-.074.02-.147.03-.213.04-.185.025-.233.04-.278.13l-.076.152h-.048a.325.325 0 01-.182.135c-.103.03-.212.008-.322-.066l-.042-.034c-.002.005-.067.01-.11.015-.05.004-.102.008-.154.008l-.067-.008c-.05-.013-.124-.01-.2-.008-.15.004-.345.01-.534-.086-.093.009-.172.002-.24-.003-.105-.01-.153-.011-.213.018l-.123.062-.118-.059c.005.007-.02.023-.036.035-.024.015-.052.034-.086.051v.34l-.328-.164-.012.005c-.15.061-.275-.012-.34-.055-.093.047-.19.075-.28.1-.063.02-.17.05-.195.075v.114l-.073.077-.017.044a.638.638 0 01-.115.207c.136.153.124.357.118.458a.53.53 0 00-.001.103l.11.082-.014.117v.74c.14.177.171.455.1.668l-.036.108-.035.018a.696.696 0 01.012.184l-.001.022c.203.188.123.445.094.538l-.008.027c.055.12.064.223.07.303a.5.5 0 00.019.12l.014.087c0 .184-.049.32-.095.45l-.007.02c.126.043.331.134.383.394l.017.081-.116.29a.433.433 0 01-.119.255c.02.14-.03.268-.15.382.002.093-.024.176-.042.237-.004.013-.01.03-.013.044l.283.213-.189.128a.467.467 0 01.048.206v.083l-.046.07c-.042.062-.033.11.017.277.055.18.13.425.007.712l-.021.049-.037.038c-.068.066-.067.176-.04.314.064 0 .157.002.185-.01l.123-.247.233.133c.012.002.035.002.059.004.064.005.157.013.251.053.088-.019.173-.017.25-.015.035 0 .085.001.116-.002l.159-.316.205.205a.34.34 0 01.234.033c.031 0 .064 0 .098.005l.045-.024c.112-.056.224-.112.384-.17.154-.122.323-.134.43-.141l.054-.004.196-.197.18.226c.009-.005.017-.01.025-.013.105-.056.3-.159.526-.046l.102.05.014.044.039-.003c.04-.003.081-.005.123-.005h.053l.05.02c.22.087.607.087.828 0a.731.731 0 01.046-.029.633.633 0 01.342-.106l.082.008.022-.01c.06-.023.141-.056.24-.056h.148l.067.1c.019.001.048 0 .069-.001.044-.001.094-.004.147.002.105-.033.234-.028.374.076a.355.355 0 01.056-.004h.114l.07.07c.172.012.32-.01.477-.034.202-.03.446-.056.595.01.1-.049.197-.062.262-.072h.003a.434.434 0 01.043-.098l-.09-.09.25-.188-.001-.002c-.02-.059-.048-.14-.048-.24 0-.06.003-.125.007-.191.009-.16.018-.324-.036-.433l-.088-.177.125-.126c-.007-.021-.02-.049-.028-.07-.049-.11-.134-.303-.04-.507a2.052 2.052 0 00-.049-.274 2.263 2.263 0 01-.063-.41c-.054-.132-.15-.214-.307-.337a3.854 3.854 0 01-.136-.11c-.136.014-.268.004-.397-.006a4.12 4.12 0 00-.186-.011.368.368 0 01-.248.123c-.202.096-.376.022-.467-.017-.02-.008-.047-.02-.057-.021l-.205.102-.11-.165-.054.01c-.101.019-.256.048-.429-.01a1.183 1.183 0 01-.279.038c-.042.002-.104.006-.136.013l-.066.097h-.147c-.217 0-.398.038-.627.085l-.054.011c-.225.16-.519.114-.684.087-.028-.004-.053-.009-.072-.01l-.105-.005-.076-.067c-.002.007-.035.013-.094.043l-.09.046-.1-.025a.42.42 0 01-.278-.202c-.09-.165-.035-.335-.002-.436.006-.019.013-.036.016-.052-.002-.034-.002-.146-.02-.176l-.16-.04-.043-.156c-.077-.308.117-.466.2-.533l.025-.02.017-.017.063-.188.192.013c.036 0 .072-.004.107-.007a.97.97 0 01.3.01c.104-.113.29-.294.622-.228l.061.013.05.037c0-.005.047-.02.078-.03.098-.03.275-.086.459-.01a.27.27 0 01.044-.01.937.937 0 01.53-.018.663.663 0 01.158.001.311.311 0 01.183-.091v-.127h.275c.187 0 .321.088.4.263.031-.004.062-.005.092-.007.045-.003.113-.007.134-.016l.104-.104.127.042c.05.01.065.003.139-.034a.717.717 0 01.409-.093c.201-.053.355.067.445.165l.514-.515c.002-.12.007-.241.012-.36a4.923 4.923 0 00-.005-.768 2.034 2.034 0 01-.09-.271c-.033-.118-.064-.232-.117-.298l-.017.007c-.096.044-.242.095-.372.05a.323.323 0 01-.112.02H108l-.09-.09a.625.625 0 01-.037-.043l-.267.133.003-.348h-.026c-.218-.008-.363-.178-.47-.302l-.015-.02c-.113-.047-.21-.122-.299-.19a.857.857 0 00-.186-.123l-.151.038-.091-.112c-.02-.02-.032-.025-.108-.037a.72.72 0 01-.328-.124.85.85 0 01-.149-.048l-.016-.006a.343.343 0 01-.388.052.443.443 0 01-.069-.043 1.666 1.666 0 01-.59-.094zM112.5 7.1a.416.416 0 01-.219.078l-.508.382v.138h-.16a.558.558 0 00-.04.193 2.063 2.063 0 01-.026.177l-.003.216c0 .027.002.058.004.091.008.15.02.381-.087.584v.024a.406.406 0 01-.146.29v.044l-.058.058.012.056c.02.095.05.232-.008.359.014.062.018.121.021.17a.59.59 0 00.019.132l.053.162-.07.07a.366.366 0 01.02.056c.037.083.077.194.088.314l.03.003a.653.653 0 01.317-.008v-.873l.442.886a.332.332 0 01.186.027.414.414 0 01.248.05c.165-.066.347-.01.44.017l.026.008c.299-.224.538-.114.634-.05.02-.004.06-.023.184-.113l.273-.185.08.08h.114c.073 0 .137.007.199.015.085.011.121.016.172-.001l.146-.05a.374.374 0 01.228-.08h.17l.032.063c.061.01.11.027.15.05a.929.929 0 00.25-.04l.086-.03.088.03a.428.428 0 00.11-.003c.082-.007.191-.018.319.01a.78.78 0 01.458-.137h.092l.073.055c.035.026.085.033.163.041.118.013.378.041.484.306h.152v.276c0 .018.004.029.028.078.022.043.05.1.068.174.133.137.133.318.133.416 0 .03 0 .077.005.091l.11.083v.134c0 .129-.06.215-.109.267l.02.067-.158.226c-.148.209-.315.445-.662.515l-.145.03-.081-.082h-.085a.6.6 0 01-.141-.022c-.072.022-.136.022-.176.022l-.087-.014-.055.009c-.212.037-.343-.022-.424-.112-.037.012-.08.03-.117.045-.049.02-.098.041-.148.058l-.087.014a.32.32 0 01-.056-.005l-.173.346-.228-.456c-.063 0-.173 0-.28-.057h-.236l-.05-.102c-.065.02-.144.044-.238.044h-.114l-.08-.08a.402.402 0 00-.11-.054.916.916 0 01-.225-.118c-.015.012-.061.035-.094.05l-.058.03h-.525c-.197.15-.484.134-.685.058a8.084 8.084 0 00-.283.012c-.227.01-.46.024-.688-.001a.456.456 0 00-.027.047 2.2 2.2 0 01-.052.096.99.99 0 01.162.287l.042.128-.074.112c-.035.052-.026.23-.019.36.004.077.008.155.008.234v.198l-.082.028c.072.142.04.293.024.37a.795.795 0 00-.009.047.428.428 0 01.039.306l.107.107-.115.172.008.02c.012.035.029.082.036.138a.52.52 0 01.115.333.473.473 0 00.021-.005c.034-.008.086-.02.098-.03l.187-.28.329.332a.372.372 0 01.125.145.443.443 0 01.344-.027v-.062h.276c.07 0 .178-.059.257-.102l.114-.056c.253-.085.45.032.555.096a.517.517 0 01.46-.102l.076.021a.641.641 0 00.026-.016c.084-.054.2-.128.347-.128h.17l.076.152c.011.011.052.02.08.026a.93.93 0 01.222.073c.136-.034.253-.003.333.018l.069.016a.636.636 0 01.246.004l.01.003.008-.01.082-.11h.138a.35.35 0 01.093.012l.182-.071.03.042.057-.058.094.19h.06c.245 0 .501.03.75.06.212.024.415.048.606.054a.486.486 0 01.25-.159c.118-.11.191-.289.275-.492.102-.249.217-.53.447-.761a.483.483 0 01.138-.098.398.398 0 01.012-.03c.003-.228.027-.496.226-.761l.15-.2c.053-.13.137-.226.2-.298a.536.536 0 00.087-.113s0-.01-.01-.035l-.086-.198.049-.037a.355.355 0 01-.03-.305l.021-.062.046-.046a.596.596 0 01.252-.19l.012-.024v-.211h.164c.018-.033.037-.06.052-.083l-.01-.01-.026-.082c-.056-.227.033-.401.265-.517a.658.658 0 01.107-.277.479.479 0 01.12-.363l-.04-.059.05-.073c-.116-.176-.075-.314-.025-.397.024-.084.018-.118.009-.14l-.03-.017-.005-.303.025-.014.194-.193h.037c.054-.061.128-.132.234-.145l.388-.35a.893.893 0 01.093-.213c.04-.074.061-.115.061-.165v-.092l.027-.036c-.033-.044-.1-.108-.14-.146l-.062-.061c-.16-.01-.276-.117-.335-.171l-.03-.027c-.246.161-.548.08-.732.02-.236.056-.413-.088-.515-.17a.702.702 0 00-.105-.075c-.138 0-.367-.008-.558-.072-.018-.006-.066-.001-.107.003a.79.79 0 01-.325-.02.463.463 0 01-.34-.051.817.817 0 01-.344.077c-.035.002-.089.005-.119.012a.379.379 0 01-.245.115c-.166.011-.28-.09-.351-.163l-.099-.025a.545.545 0 00-.162.035c-.129.039-.298.09-.494.05-.236.077-.446-.063-.579-.18a.667.667 0 01-.243-.067l-.033.017-.103-.03c-.207-.058-.442-.064-.69-.071-.17-.005-.345-.01-.515-.032-.146 0-.37.001-.433.028l-.053.024-.069.005a.399.399 0 01-.154-.033c-.04.004-.075-.007-.104.004l-.218.218-.113-.226a.404.404 0 01-.25-.108l-.048.016c-.28.094-.48-.006-.612-.072a.37.37 0 00-.137-.052zm-49.201 4.7l.16.093c.154.088.35.112.558.138.241.03.513.065.761.207l.092.052.033.1a.36.36 0 01-.032.314c-.099.155-.274.175-.39.187l-.054.007c-.175.135-.34.285-.5.431-.45.41-.914.833-1.642.97-.1.029-.207.043-.32.043-.337 0-.722-.127-1.088-.372l-.08-.052-.029-.09a1.277 1.277 0 00-.184-.291c-.186-.25-.44-.59-.267-.996l.024-.045.004-.088c.02-.351.179-.536.474-.55.428-.104.83.01 1.185.11.495.14.815.21 1.15-.053l.145-.114zM77.58.679l.16.374c.167.39.527.857.799.935l.133.038.049.13c.134.358.403.404.867.455.31.034.659.073.934.29.228.016.43.083.612.143.22.072.41.136.589.09l.105-.026.095.053c.52.29.367.74.293.955-.029.085-.065.19-.05.233l.066.2-.175.116c-.234.156-.497.26-.751.36-.595.236-.962.407-1.021.935l-.006.057-.029.05c-.058.102-.07.158.254.392l.074.054c.41.274.894.17 1.354.017l.104-.035.099.047c.377.175.775.143 1.197.108.43-.036.919-.077 1.421.113 1.208.316 2.251.515 3.257.616.608 0 .803.509.945.88.056.146.109.284.18.397l.04.066v.08c0 .378-.16.602-.278.766l-.104.152-.086.03c-.675.242-1.3.22-1.9.2-.129-.004-.257-.008-.385-.01-.361.28-.773.164-1.08.078-.146-.04-.283-.079-.399-.079h-.12l-.082-.089c-.326-.354-.749-.432-1.239-.522-.386-.072-.786-.145-1.162-.367-.466-.015-.862-.161-1.247-.302-.347-.127-.674-.247-1.042-.272l-.08-.005-.064-.047c-.262-.19-.592-.241-.941-.295-.377-.058-.765-.118-1.118-.35-.384-.03-.723.195-1.083.43-.25.162-.509.33-.796.426-.63.19-1.096.473-1.358.823l-.071.095-.118.014c-.43.047-.855.398-.982.696l-.054.126-.133.033c-.555.139-.831.235-.995.293-.148.05-.25.088-.371.07-.633.233-1.173.453-1.74.712l-.088.04-.093-.024c-.275-.069-.489.037-.759.17-.234.116-.496.245-.813.245-.146.09-.32.184-.535.184a.758.758 0 01-.187-.024l-.081-.02-.056-.062c-.174-.192-.253-.388-.235-.585.03-.322.302-.527.542-.708.13-.098.293-.221.327-.31l.055-.149.156-.026c.79-.137 1.482-.49 2.215-.865.72-.368 1.466-.748 2.314-.906.268-.175.57-.299.864-.418.536-.22 1.045-.426 1.312-.924-.034-.134-.192-.184-.245-.197l-.035-.012c-.128-.051-.29-.056-.476-.063-.141-.005-.288-.01-.442-.035l-.163-.028-.053-.157c-.075-.227-.227-.281-.537-.375-.255-.077-.568-.172-.804-.455-.249-.107-.366-.345-.461-.54l-.049-.097c-.106-.202-.169-.252-.331-.241l-.052.004-.05-.015c-.216-.065-.456.013-.733.103-.29.095-.618.201-.962.133l-.117-.023-.063-.1c-.034-.055-.304-.055-.42-.055-.274 0-.585 0-.734-.254-.144-.245-.014-.544.114-.777l.047-.06c.039-.04.083-.122.126-.201.124-.23.345-.65.874-.522.11-.034.23-.091.357-.15.393-.188.931-.443 1.429 0 .056.056.102.12.151.19.04.058.09.13.136.174.28-.093.533-.03.743.021.171.042.285.067.38.034.318-.204.671-.293.983-.372.413-.105.77-.195.98-.511.249-.293.546-.32.764-.338.239-.022.332-.037.413-.187.166-.534.68-.92 1.232-.92l.157.015a3.84 3.84 0 00.049-.048l.287-.288zM181.555 0l.105.104a.416.416 0 00.14.067c.12.043.362.13.396.408.043.114.048.225.053.318l.002.044h.11l.096.154c.037.075.1.26-.086.432v.771h-.181a.465.465 0 01-.196.203.98.98 0 01-.177.187c-.03.027-.076.068-.085.085l.019.093-.04.084c-.015.03-.003.065.1.176h.612c.231-.11.43.032.52.097.028.02.076.054.092.057l.284-.142.093.213h.012c.095.007.237.017.373.108.313.154.677.24 1.052.24h.17l.076.153a.341.341 0 00.056.065c.054.054.145.145.145.289v.336l-.329-.066c-.07-.014-.166.01-.269.037-.162.041-.362.092-.577.028-.16.017-.272.138-.447.34-.118.136-.25.29-.425.4l-.269.311c-.304.355-.593.691-.969 1-.026.121-.08.233-.129.336a.966.966 0 00-.084.209c.003 0 .012.006.028.015.212.03.328.186.4.283.021.027.04.055.065.08l.11.11-.038.151c-.048.193.031.274.29.476.215.169.483.378.52.751.016.072.103.17.195.272.085.097.173.196.236.322l.137.274-.287.107c-.399.15-.64-.053-.784-.174-.11-.092-.138-.105-.19-.099l-.105.015-.087-.058c-.195-.13-.365-.3-.53-.466a4.126 4.126 0 00-.356-.33c-.21.007-.368-.122-.46-.2-.022-.02-.054-.047-.075-.061-.357.183-.578.37-.694.586-.075.232-.282.327-.421.39a.64.64 0 00-.126.066l-.03.046-.042.026c-.078.052-.13.144-.184.242-.08.144-.23.414-.55.414a.711.711 0 01-.212-.035 3.23 3.23 0 01-.765-.123l-.074-.019-.032-.03c-.114-.044-.332-.136-.332-.39l.005-.055.141-.706.347.249c.027.006.08-.047.113-.08.094-.095.295-.293.553-.238a.207.207 0 00.056-.182 1.076 1.076 0 01-.048-.464c.008-.132.01-.199-.038-.279l-.128-.213.27-.202c.18-.132.285-.22.321-.327-.128-.19-.099-.414-.08-.56a.658.658 0 00.01-.158l-.095-.049-.033-.086c-.093-.247-.272-.416-.48-.612a4.175 4.175 0 01-.294-.296c-.2-.111-.27-.305-.319-.437l-.027-.071a.317.317 0 00-.079-.13c-.339-.006-.805-.056-1.22-.333-.209-.14-.198-.343-.181-.446l-.429-.286.573-.164c.094-.027.165-.122.273-.275l.055-.076c.132-.183.303-.382.598-.455.115-.03.48-.102.789.03.232-.047.438-.006.621.032.112.023.217.044.32.044.046 0 .11.01.184.025.06.012.2.039.239.02l.153-.101.15.102a1.362 1.362 0 01.127-.074c.195-.113.259-.4.193-.926l-.01-.074.03-.069c.036-.082.016-.139-.055-.294-.081-.18-.193-.427-.059-.74l.02-.048.038-.038c.144-.144.368-.218.533-.242.262-.241.568-.405.87-.465l.143-.029zM60.266 6.716l.112.075c.283.188.63.21 1 .234.189.013.384.026.578.061.342-.035.686.035 1.02.101.15.03.296.059.438.076.166.013.364-.002.574-.019.54-.043 1.211-.097 1.67.463l.062.076v.099c0 .59-.546.631-.808.652-.076.006-.192.014-.226.031l-.063.048-.072.003c-.179.016-.339.042-.488.066a3.791 3.791 0 01-.618.067 1.72 1.72 0 01-.517-.077 18.365 18.365 0 00-1.49.002c-.528.015-1.073.03-1.573 0l-.127-.008-.077-.102c-.252-.336-.417-.853-.123-1.294l.034-.043c.024-.023.05-.053.078-.084.128-.142.287-.317.488-.385l.128-.042zm120.528-2.432c-.207.099-.423.11-.617.12-.205.012-.342.024-.443.093.003.142.015.223.068.302l.046.07v.083c0 .146.029.269.059.398.039.168.082.357.062.593.03.034.116.094.362.178.15.031.363.132.353.455.01-.024.017-.049.024-.07.056-.163.125-.366.299-.505l.04-.027c.444-.243.697-.695.966-1.174l.12-.214c-.096-.164-.286-.189-.675-.206-.223-.01-.453-.02-.664-.096zm-103.7-.914c-.194-.047-.368.037-.628.175-.204.108-.432.23-.698.245-.266.106-.534.173-.795.238-.393.099-.766.192-1.096.41-.029.086-.076.24-.06.299.272.304.68.454 1.063.555.32-.115.59.102.774.253.042.034.085.07.13.102l.09-.002c.22 0 .44.032.657.064.312.046.608.09.836.026l.14-.097c.46-.317.827-.57 1.013-1.098-.007-.052-.007-.103-.007-.148l-.001-.047c-.383-.098-.662-.349-.933-.592a3.144 3.144 0 00-.484-.383zM25.49 0C39.584 0 51 11.42 51 25.5S39.584 51 25.49 51C11.416 51 0 39.58 0 25.5S11.416 0 25.49 0zm0 .495C11.683.495.494 11.688.494 25.5c0 13.811 11.19 25.005 24.996 25.005S50.505 39.311 50.505 25.5C50.505 11.688 39.295.495 25.49.495zm0 .907c13.311 0 24.088 10.78 24.088 24.098 0 13.296-10.777 24.098-24.088 24.098-13.291 0-24.068-10.802-24.068-24.098 0-13.317 10.777-24.098 24.068-24.098zm0 .845c-12.838 0-23.244 10.41-23.244 23.253S12.652 48.753 25.49 48.753c12.837 0 23.243-10.41 23.243-23.253S38.327 2.247 25.49 2.247zm4.525 40.148l.008.009c.02 0 .02.02-.02.061l.082.268.453-.123.083.33-.433.123.165.578-.495.144.041.165.783-.227.248.866-.783.226.061.186.763-.227.103.33-.783.227.062.206.72-.206.083.33-.7.206.062.206.741-.289.091.273-1.863.758c-.041.062-.062.083-.082.062-.02 0-.041-.041-.083-.124l-.082-.226.948-.33-.062-.227-.845.247-.103-.33.845-.247-.062-.227-.907.268-.082-.33.907-.267-.062-.186-.804.247-.247-.886.804-.227-.042-.165-.535.145-.165-.557-.454.124-.103-.33.474-.124-.103-.37.227-.063c.103-.02.144-.02.165 0 .02.02 0 .041-.041.103l.082.227.68-.185-.103-.372.247-.061c.083 0 .124-.021.124 0zm-7.658-.074l.33.124c.062.02.083.041.062.083 0 .04-.041.082-.103.123l-.103.577.907.186-.062.33-.886-.165a5.385 5.385 0 00-.124.804c-.02.268-.041.556-.041.824.123-.165.247-.35.33-.515.103-.186.164-.35.206-.516l.267.165c.062.042.083.083.083.124 0 .041-.041.062-.083.082-.144.248-.288.495-.411.68-.145.207-.248.372-.33.475 0 .124.02.206.04.288.021.083.063.165.104.207l.124-.186c.04-.082.082-.165.123-.268l.227.33c-.165.268-.288.474-.392.598-.103.123-.205.123-.268.02-.04-.082-.103-.165-.144-.288a1.684 1.684 0 01-.103-.433c-.185.124-.35.247-.474.33-.144.082-.309.144-.494.206l-.165-.31c.206-.061.392-.144.577-.246.206-.104.35-.228.474-.372-.041-.226-.041-.515-.02-.886.02-.35.082-.763.143-1.175l-.886-.186-.123.64.72.144-.102.453c-.062.392-.165.68-.289.866-.102.206-.247.31-.432.33l-.083.041-.185-.412c-.062.165-.124.309-.206.453a1.96 1.96 0 01-.31.413l-.226-.29-.062.248-.33-.082.042-.248-.557-.103-.041.248-.35-.062.289-1.464 1.236.227-.227 1.134c.185-.165.33-.392.433-.66a3.01 3.01 0 00.247-.866l.288-1.401 1.196.226.164-.845zm9.02-.302l.027.014c0 .02 0 .061-.042.123l.268.949.804-.227.35 1.216c.062.247.103.474.144.68.041.186.062.371.062.516 0 .144-.02.268-.103.371a1.031 1.031 0 01-.35.268l-.124.062-.268-.31.206-.062c.104-.04.186-.082.227-.164.062-.083.062-.186.062-.31-.02-.165-.041-.35-.082-.536-.042-.185-.103-.391-.145-.577l-.226-.742-.454.144c.103.495.165.99.186 1.464.02.495-.02.928-.124 1.299l-.35-.062c-.02 0-.022-.02-.04-.038.11-.26.184-.59.184-1.014 0-.453-.062-.989-.185-1.587l-.577.186-.083-.33.556-.165-.309-1.072.289-.082c.062-.02.103-.02.124 0zm-12.09 2.88l-.103.556.577.103.103-.557-.577-.103zm1.793-.599a5.16 5.16 0 01-.144.536c-.042.186-.103.371-.145.536h.145c.144.02.247-.04.33-.185.082-.145.144-.413.205-.804zm8.593.062l-.495.144.062.206.494-.123-.061-.227zm.783-.227l-.474.124.062.227.474-.124-.062-.227zm-11.251-.268l1.092.227-.062.33-1.113-.227.083-.33zm.123-.639l1.093.207-.062.33-1.092-.207.061-.33zm10.53-.083l-.7.207.082.247.68-.206-.062-.248zm-6.78-.597c.083.062.145.144.207.227a.779.779 0 01.185.268l-.288.227a.696.696 0 00-.124-.248 1.33 1.33 0 00-.206-.268zm-3.832 0l1.463.289-.062.33-1.463-.29.062-.33zm-6.965-4.35l2.7 2.186-.206.247-1.237-1.01-.165.206 1.133.927-.206.227-1.133-.907-.144.186 1.133.907-.206.247-1.133-.907-.124.165 1.32 1.072c-.084.103-.187.206-.31.33a2.652 2.652 0 01-.35.33.737.737 0 01-.371.164c-.124 0-.247-.02-.33-.082-.062-.041-.103-.083-.165-.103-.061-.041-.103-.082-.144-.103l.083-.412c.04.02.082.061.164.103a.56.56 0 01.165.144c.103.082.227.082.35.041.144-.062.289-.185.433-.391l-2.246-1.814-.124.123-.247-.185 1.36-1.69zm7.315 3.773l1.072.206-.062.33-1.072-.206.062-.33zm18.704-.942l.007.014s0 .041-.021.103c.082.206.165.412.227.598.061.206.103.392.144.557l-.412.061a3.846 3.846 0 00-.124-.597 5.13 5.13 0 00-.227-.598l.35-.124c.042-.02.063-.02.063 0zm-25.792.261l.33.021v.268c-.021.082-.021.186-.062.268l-.35-.082c.02-.083.04-.165.04-.248.021-.082.042-.144.042-.227zm28.107-1.484l.082.227a.803.803 0 01.062.289c.02.102-.02.165-.082.226l-1.031.928c-.103.103-.227.124-.35.103-.103 0-.227-.083-.33-.185l-.66-.742.371-.228c.021-.04.042-.04.042-.02s0 .083-.02.165l.411.453a.451.451 0 00.186.145c.061.041.165 0 .288-.083l.68-.618c.042-.062.083-.103.103-.165 0-.041 0-.103-.02-.165l-.083-.247.35-.083zm-28.746.948l.268.104c0 .103 0 .226-.02.35a6.625 6.625 0 00-.124.35l-.33-.164c.041-.104.082-.207.124-.33.02-.103.061-.206.082-.31zm7.5-29.54c.948-.556 2.04-1.175 3.4-.928-.061.68-1.256 1.794-2.41 2.433.082.041.267.062.412.247-.495.536-1.216.928-1.999 1.34 0 .35-.7.948-1.566 1.381-.227.578-.907 1.361-1.36 1.815.041.556-.68 1.504-1.38 1.958.04.886-.413 1.422-.907 2.082.144.824.04 1.505-.268 2.268a6.358 6.358 0 01-.103 2.102c.412.742.515 1.526.453 2.763.589.669.605 1.226.82 1.883l.066-.132.227.124-.165.31a.973.973 0 01.402.733l.067.091h.005v.006l.041.056c.37.371.66.7.948 1.113.783.31 1.401.886 1.875 1.69-.02-.061.041-.123.144-.37 1.257.865 1.958 2.102 2.185 3.648.453.35.948.64 1.298 1.093 1.253.525 2.546.953 3.892 1.27a24.283 24.283 0 003.876-1.27c.371-.454.845-.742 1.32-1.093.226-1.546.926-2.783 2.183-3.648.083.247.144.309.144.37.475-.804 1.093-1.38 1.876-1.69.24-.342.482-.629.768-.928h-.006v-.247h.232c.035-.047.07-.093.102-.139.053-.214.167-.4.316-.544.051-.109.096-.216.132-.319l-.081-.152.16-.096c.174-.605.216-1.133.767-1.76-.041-1.236.041-2.02.433-2.762a8.675 8.675 0 01-.083-2.102c-.309-.763-.412-1.444-.247-2.268-.515-.66-.948-1.196-.927-2.082-.7-.454-1.422-1.402-1.36-1.958-.453-.454-1.133-1.237-1.36-1.815-.886-.433-1.566-1.03-1.566-1.38-.804-.413-1.525-.805-1.999-1.34.144-.186.33-.207.412-.248-1.174-.64-2.349-1.752-2.431-2.433 1.38-.247 2.472.372 3.4.928-.165-.206-.165-.33-.062-.515.907 0 1.483.536 1.937 1.113.082-.206.062-.289.185-.371.536.33 1.278 1.092 1.607 1.835.042-.31.124-.454.29-.619.906.639 1.153 1.814 1.256 2.824.103-.144.31-.433.412-.515.495.288.907 1.525 1.03 2.494.083-.165.207-.309.33-.35.371.536.762 1.731.598 2.72.123-.205.226-.308.432-.35.392.33.721 2.02.557 3.113.164-.144.288-.185.536-.247.226.515.164 1.979-.083 2.7.454 0 .144 2.453-.289 3.03.186-.061.29-.061.33-.02.206.928-.535 1.98-1.092 2.721.206-.041.268-.02.371.062-.35.907-.989 1.876-2.081 2.515.618.268-.742 1.938-1.855 2.288.33.062.495.227.495.371-.165.495-1.051 1.258-2.308 1.732.165.02.309 0 .433.185-1.36 1.217-2.927 1.794-4.905 1.32a79.71 79.71 0 01-3.14 1.162c.918.174 1.859.299 2.831.363-.391.33-1.01.721-1.483.763-.825-.258-1.616-.51-2.394-.77-.774.26-1.562.512-2.387.77-.494-.042-1.113-.433-1.504-.763a23.7 23.7 0 002.842-.362 76.907 76.907 0 01-3.151-1.163c-1.979.474-3.524-.103-4.884-1.32.124-.185.247-.165.433-.185-1.278-.474-2.164-1.237-2.308-1.732 0-.144.144-.309.474-.37-1.113-.351-2.453-2.021-1.855-2.289-1.071-.64-1.71-1.608-2.06-2.515.082-.082.165-.103.37-.062-.556-.742-1.298-1.793-1.112-2.72.062-.042.164-.042.35.02-.433-.578-.762-3.03-.288-3.03-.268-.722-.31-2.186-.103-2.701.268.062.391.103.535.247-.144-1.092.186-2.783.577-3.113.206.042.289.145.413.35-.165-.989.247-2.184.618-2.72.123.041.247.185.33.35.123-.969.535-2.206 1.01-2.494.123.082.329.371.39.515.124-1.01.392-2.185 1.299-2.824.144.165.227.31.267.619.351-.743 1.093-1.506 1.629-1.835.123.082.103.165.164.37.474-.576 1.051-1.112 1.937-1.112.103.185.103.309-.061.515zM11.19 40.28l.288.103c-.02.124-.061.227-.103.35-.04.125-.082.228-.144.351l-.31-.144c.063-.103.104-.206.145-.33a1.33 1.33 0 00.124-.33zm27.612-2.927l1.133 1.278-.247.227-.165-.185-.824.742.371.412-.247.227-.371-.413-.886.804.165.165-.248.227-1.153-1.257 1.133-1.031-.371-.412.33-.186c.02 0 .04-.02.04 0 .021 0 .021.04 0 .103l.269.268 1.071-.969zm-28.168 2.412l.247.227c-.083.082-.165.185-.268.268a3.024 3.024 0 01-.31.227l-.267-.289c.082-.062.206-.124.309-.206.103-.083.206-.145.289-.227zm.989-.227l-.145.165.969.784.123-.186-.947-.763zm27.57.454c.125 0 .248 0 .392.02.165 0 .289.021.413.042l-.083.37a1.247 1.247 0 00-.35-.082c-.165-.02-.31-.041-.454-.041zm-1.503-1.175l-.887.783.536.577.886-.783-.535-.577zm-23.12-.227l.246.309c0 .02 0 .041-.02.041s-.041 0-.103-.02c-.02 0-.041.02-.062.041-.02 0-.062.02-.103.02l1.072.867-.207.247-.515-.412-.062.33-.288-.165.083-.392-.433-.35c-.082.02-.165.061-.247.082-.083.02-.145.02-.186.041l-.123-.31c.144-.02.309-.061.474-.123.185-.062.329-.144.473-.206zm-2.597.515l-.144.186.948.763.144-.165-.948-.784zm28.066 0c.185.021.37.042.597.083.206.041.412.082.598.144l-.062.371c-.165-.062-.371-.103-.577-.165a7.319 7.319 0 00-.618-.082zm-27.695-.453l-.165.206.948.783.165-.206-.948-.783zm26.438-.825l-.845.763.536.577.824-.742-.515-.598zm-6.326.042c-.145 0-.31 0-.433.02-1.03.083-1.855.536-2.287 1.134.68.185 1.524.144 2.287-.02.144-.042.288-.104.433-.124.453-.165.824-.35 1.112-.598.062-.062.145-.144.206-.227-.061-.02-.164-.041-.206-.062a5.42 5.42 0 00-1.112-.123zm-14.013 0c-.37 0-.72.04-1.112.123l-.206.062a.713.713 0 00.206.227c.247.247.638.433 1.112.598.145.02.268.082.433.123.762.165 1.607.206 2.266.02-.432-.597-1.236-1.05-2.266-1.133-.144-.02-.288-.02-.433-.02zm-5.296-.454l.227.309c0 .042-.02.062-.04.062-.022.02-.083 0-.145-.02h-.042c-.02.02-.04.02-.061.04l.845.681-.207.247-.494-.391-.062.33-.288-.145.082-.412-.289-.227c-.102.02-.206.041-.309.041-.102.02-.185.02-.247.02l-.124-.308c.186 0 .392-.02.598-.062.206-.042.391-.103.556-.165zm5.131-2.515c.021.412.083.783.165 1.134.103.453.248.824.433 1.113.247.391.598.598 1.051.556-.082-.989-.536-1.731-1.051-2.288-.144-.144-.288-.268-.433-.391-.061-.041-.103-.083-.165-.124zm14.322 0c-.041.041-.103.083-.144.124-.145.123-.31.247-.433.391-.515.557-.969 1.3-1.051 2.288.433.042.783-.165 1.05-.556.186-.289.33-.66.434-1.113.082-.35.123-.722.144-1.134zM15.62 35.979l-.167.014c-.185.02-.33.082-.494.165.144.144.309.309.494.453.31.268.66.495 1.03.639.268.124.557.206.846.268.37.041.741.041 1.112-.041l.165-.041-.165-.103c-.37-.268-.741-.537-1.112-.763a4.104 4.104 0 00-.845-.433c-.35-.144-.7-.186-1.03-.144zm19.821.014c-.35-.042-.7 0-1.03.144a3.655 3.655 0 00-.845.433c-.391.226-.742.495-1.112.763l-.166.103.166.04c.37.083.72.083 1.112.042.268-.062.557-.144.845-.268.35-.144.721-.371 1.03-.639.165-.144.35-.31.495-.453a1.556 1.556 0 00-.495-.165zM16.485 33.56c-.062.165-.041.35 0 .557.123.824.453 1.525.845 1.979.267.268.577.453.906.515-.33-.453-.37-1.505-.906-2.288a1.798 1.798 0 00-.845-.763zm17.968-.041c-.433.206-.7.474-.886.804-.535.783-.598 1.835-.907 2.288.31-.062.619-.247.907-.515.392-.454.7-1.155.845-1.98.02-.206.041-.391.041-.597zm-8.016-19.955v1.216c.499.04.978.125 1.443.242l-.186-.324.207-.124.247.433-.097.058c.207.057.412.119.612.19l.474-1.155.474.186 1.092.453-.474 1.175c.66.35 1.278.784 1.855 1.278l.906-.927 1.216 1.216-.927.907a10.89 10.89 0 011.257 1.855l1.195-.495.66 1.588-1.216.495c.226.7.391 1.443.453 2.205h1.298v1.711h-1.298a8.716 8.716 0 01-.412 2.185l1.174.475-.415 1 .065.112-.15.09-.16.385-1.153-.475a10.54 10.54 0 01-1.236 1.877l.281.288h.234v.24l.35.358-1.216 1.196-.845-.846c-.577.495-1.215.949-1.875 1.3l.433 1.092-1.092.433-.474.206-.433-1.052c-.721.227-1.483.413-2.267.475v1.113h-1.69v-1.093c-.782-.062-1.565-.185-2.286-.412l-.413.969-.597-.248-.969-.391.412-.99c-.72-.35-1.36-.783-1.978-1.278l-.721.722L17 32.282l.577-.577v-.02h.02l.124-.124a11.082 11.082 0 01-1.319-1.938l-.927.37-.185-.444-.062.115L15 29.54l.165-.29-.35-.843.927-.372a12.16 12.16 0 01-.453-2.288h-1.01v-1.71h1.03a9.56 9.56 0 01.474-2.31l-.968-.391.659-1.588.968.413c.371-.68.804-1.32 1.32-1.897L17 17.481l1.195-1.216.804.783a10.969 10.969 0 011.916-1.257l-.433-1.052.969-.412.597-.227.454 1.051c.14-.04.284-.076.427-.11l-.098-.054.248-.454.206.123-.17.339a11.483 11.483 0 011.633-.256v-1.175h1.69zM13.291 33.787c.206.103.33.268.432.412.289.453.413 1.03 1.731 1.299.247.062.577.103.948.144-.206-.474-.535-.825-.948-1.113-.515-.371-1.133-.598-1.73-.7zm24.294 0l-.432.041a4.13 4.13 0 00-1.71.701c-.413.288-.742.639-.949 1.113.35-.041.68-.082.948-.144 1.299-.268 1.443-.846 1.71-1.3.104-.143.227-.308.433-.411zm-22.48-1.505c-.084.206-.228.33-.351.371 0 .392.165.825.7 1.32.186.164.413.35.7.556a5.311 5.311 0 00-.7-1.773c-.103-.165-.226-.31-.35-.474zm20.688 0c-.124.165-.248.31-.35.474a4.566 4.566 0 00-.701 1.773 8.33 8.33 0 00.7-.557c.536-.494.7-.927.7-1.319-.143-.041-.267-.165-.35-.371zm-24.15-1.051c.082.185.185.37.288.515.226.392.432.66.68.886.206.206.432.371.659.516.144.082.309.164.453.227a3.6 3.6 0 00.948.268 6.483 6.483 0 00-.549-.832 1.089 1.089 0 01-.234.027 1.126 1.126 0 01-1.112-1.133c0-.035.007-.068.01-.102-.059-.036-.119-.073-.175-.104a2.499 2.499 0 00-.66-.227c-.123-.02-.226-.02-.309-.041zm27.591 0c-.082.02-.165.02-.268.04a2.2 2.2 0 00-.68.228c-.051.023-.098.054-.146.082a1.113 1.113 0 01-1.414 1.291c-.199.253-.38.517-.521.77.33-.04.66-.144.948-.267.165-.063.309-.145.474-.227.226-.145.453-.31.66-.516.205-.226.432-.494.638-.824.144-.206.227-.392.309-.577zM21.1 30.303h-.824v.371H19.23c.337.37.705.706 1.1 1.01h.008c.081.068.164.129.247.188v-.188h.515v.247h-.435c.254.176.514.344.786.495a8.617 8.617 0 003.297.97V31.93h-.412v-.226h-.227v.226h-.515v-.247h.33v-.33h-1.587l-1.237-1.05zm10.922.02H30.27l-1.36 1.01-1.648.021v.35h-.186v.227h-.494v-.226h-.145v1.67a8.458 8.458 0 003.174-1.031c.257-.15.503-.312.742-.482v-.178h.23a9.215 9.215 0 001.439-1.36zm5.007.743c-.412 0-.721.33-.721.742a.725.725 0 00.656.715l.065.006a.735.735 0 00.74-.711.743.743 0 00-.74-.752zm-23.14-.083c-.392 0-.722.31-.722.722 0 .386.291.697.65.734l-.011-.013c.02 0 .041.02.082.02.392 0 .722-.329.722-.741a.717.717 0 00-.722-.722zm13.95.701v.247h-.495v-.247h.495zm6.759 0v.247h-.495v-.247h.495zm-11.251 0v.247h-.495v-.247h.495zm5.976 0v.247h-.495v-.247h.495zm-12.735 0v.247h-.515v-.247h.515zm5.996 0v.247h-.494v-.247h.494zm7.5 0v.247h-.494v-.247h.495zm-14.258 0v.247h-.495v-.247h.495zm19.534 0v.247h-.515v-.247h.515zm-18.03 0v.247h-.495v-.247h.495zm4.492 0v.247h-.495v-.247h.495zm6.78 0v.247h-.516v-.247h.515zm-1.567-.742h-2.802v.577h2.802v-.577zm-16.361-2.33c.185.537.433 1.031.7 1.526l.413.722c.04-.021.082-.021.144-.042.247-.02.453.042.68.103.103.041.185.083.288.145a5.827 5.827 0 00-.288-.722 3.545 3.545 0 00-1.237-1.402 3.117 3.117 0 00-.7-.33zm29.528 0a2.97 2.97 0 00-.68.33 2.852 2.852 0 00-.556.433 4.076 4.076 0 00-.68.97c-.103.226-.206.453-.31.72.104-.061.207-.103.31-.144.206-.082.412-.123.639-.103.082.021.124.021.185.042l.412-.722c.268-.495.516-.99.68-1.526zm-16.67.578h-1.071l-.928.948.907.907h1.484v-.35h.824v-1.093h-.804l-.412-.412zm5.07 0H27.57l-.433.412h-.7v1.093h.824v.35h1.483l1.072-.907-1.216-.948zm8.716.268c-.062.082-.104.165-.165.247-.144.289-.268.557-.33.948.103-.061.227-.04.33-.02.165.041.309.082.474.144.04 0 .082.02.144.02a3.623 3.623 0 00-.144-.741 2.366 2.366 0 00-.31-.598zm-23.76 0a2.294 2.294 0 00-.288.598 3.642 3.642 0 00-.144.742c.062 0 .082-.02.144-.02l.003-.002c.176-.116.387-.184.615-.184.058 0 .107.01.158.019-.046-.368-.164-.628-.323-.906a1.693 1.693 0 00-.164-.247zm19.061.02a.559.559 0 00-.577.557c0 .33.248.598.577.598.31 0 .557-.268.557-.598a.554.554 0 00-.557-.557zm-12.652.248h-1.504v.721h1.504v-.721zm-5.069.041l.206.124-.227.433-.226-.104.247-.453zm21.266-.02l.247.432-.227.124-.226-.433.206-.124zm-11.416-2.433h-.412l-.371.742h-1.55l-.964.619-1.292.844h.117l.02.475h.825l1.216-1.113h1.154l.474-.598h.783v-.969zm-11.663-.598a8.055 8.055 0 01-.474.928c-.083.123-.165.288-.289.453.041.392.02.845.083 1.257a.65.65 0 01.206.104c.165.124.247.33.33.536l-.001-.002.33-1.132a5.51 5.51 0 01.076-1.116l.048-.306a.417.417 0 00-.124-.186c-.165-.227-.144-.412-.185-.536zm24.707 0c-.021.124-.021.31-.042.474-.185.103-.227.165-.268.248.083.412.165.783.103 1.319l.042.103.329 1.132.05-.121c.052-.122.11-.238.19-.33l.09-.083a.386.386 0 01.206-.104c.041-.412.02-.865.082-1.257-.123-.165-.205-.33-.288-.453-.206-.35-.35-.64-.494-.928zm-10.88.598h-.475v.969h.701l.474.598h1.133l1.505 1.092h1.246l-1.885-1.257-1.015-.66h-1.375l-.31-.742zm-.165 1.278h-2.473l-.35.33.35.371h2.473l.37-.371-.37-.33zm13.62-2.824c-.35.268-.618.618-.845 1.051a6.19 6.19 0 00-.556 1.484c-.02.062-.02.104-.041.165l-.103.454.103-.062c.268-.185.433-.33.597-.474.99-.969.64-1.732.845-2.618zm-29.837 0c.185.886-.165 1.649.844 2.618.145.144.33.289.557.433.061.062.103.082.123.103l-.103-.454c-.02-.061-.02-.103-.02-.165a6.202 6.202 0 00-.557-1.484c-.227-.433-.494-.783-.844-1.051zm22.522-4.638l-1.163.76.215.394-.226.124-.206-.377-2.061 1.346-.13.08.539 3.507 2.95 1.937c.452-.874.769-1.814.908-2.82l-.084-.169.112-.06c.032-.298.053-.6.053-.909 0-1.36-.33-2.659-.907-3.813zm-15.104-.124a8.447 8.447 0 00-.99 3.937c0 .312.021.617.055.918l.028-.052.206.124-.177.339c.153.94.46 1.824.898 2.629l3.118-2.011.506-3.46-.141-.095zm10.18-3.154h-5.132l1.216 2.33h-1.69l-.485 3.315-.03.21-.42 2.87.008-.005-.165 1.072h2.267l.306-.629-.018.01.083-.144h3.153l.144.35-.016-.01.16.423h2.164l-.61-4.012-.276-1.76.008-.006-.256-1.685h-1.545l1.133-2.33zm-15.146 6.39a1.512 1.512 0 00-.371.289c-.268.268-.495.64-.66 1.051-.206.619-.226 1.155-.02 1.608.082.165.123.248.206.35.185-.35.35-.68.474-1.01a5.514 5.514 0 00.37-2.288zm24.933 0a5.192 5.192 0 00.371 2.289c.103.33.288.66.453 1.01.083-.103.144-.186.186-.268.247-.536.206-1.072.041-1.567a3.268 3.268 0 00-.68-1.175 1.512 1.512 0 00-.37-.289zM25.8 18.305v.619h.824v.453h-.824v6.082h2.596v.412h-2.596v.618h-.392v-.618h-2.596v-.412h2.596v-6.082h-.845v-.453h.845v-.619h.392zm-15.208 4.68a4.465 4.465 0 00.742 3.113c.412-.949.33-1.629.041-2.186-.185-.35-.474-.638-.783-.927zm29.694 0c-.289.289-.577.577-.763.927-.309.557-.412 1.237 0 2.103.66-.845.928-1.979.763-3.03zm-6.635 2.164l.247.433-.227.124-.226-.453.206-.104zm-16.28 0l.227.104-.247.453-.206-.124.227-.433zm7.625-1.917l.268.248-.721.7.72.702-.267.247-.7-.722v.021l-.701.7-.247-.246.7-.702-.7-.7.247-.248.7.68v.021l.701-.7zm-7.254 1.258l.227.123-.247.433-.226-.103.246-.453zm9.356-3.051l1.113 1.072-.186.144-.206-.185-.577.639v1.937h-.309V23.13l-.536-.598-.165.186-.185-.186 1.03-1.071.02-.021zm6.182 3.05l.247.434-.206.123-.247-.433.206-.123zm4.348-2.39c-.083.309-.062.618 0 .865.123.578.391.846.66 1.031.246.206.473.31.514.618.02-.206.041-.309.124-.37a4.637 4.637 0 01-.433-1.423c-.062-.042-.144-.082-.206-.144a2.887 2.887 0 01-.66-.577zm-24.295-.083c-.247.31-.495.515-.721.66-.062.062-.165.102-.227.144a3.358 3.358 0 01-.433 1.38v.042c.083.062.103.165.145.371.04-.309.247-.412.515-.618.268-.185.536-.453.659-1.03.041-.248.082-.557.062-.949zm19.617 1.793l.227.454-.206.124-.247-.454.226-.124zm-14.857 0l.206.124-.227.454-.206-.124.227-.453zm14.486-.639l.247.413-.226.123-.247-.433.226-.103zm-14.136 0l.227.104-.247.432-.206-.103.226-.433zM11.477 20.1l-.103.247c-.37.969-.35 2.185 0 2.866.124.226.248.391.433.474l.124-.619c0-.103.02-.227.02-.33.041-.412.041-.804 0-1.133-.02-.103-.02-.206-.02-.31a4.13 4.13 0 00-.454-1.195zm27.942 0c-.206.35-.37.742-.453 1.196-.02.103-.041.206-.041.309-.02.33-.02.721 0 1.134 0 .102.02.226.041.33.041.206.062.412.124.618.164-.083.309-.248.432-.474.33-.68.371-1.897 0-2.866zM18.813 22.49l.206.124-.226.454-.227-.124.247-.454zm13.415 0l.227.454-.207.123-.247-.453.227-.124zm-7.13-1.051v1.587h-1.443a.162.162 0 01-.164-.165v-1.216c0-.124.103-.206.206-.206h1.4zm1.999.412h-.02l-.495.495.494.494.495-.515-.474-.474zm-2.287.515H23.8c-.02 0-.02.021-.02.042v.33c0 .02 0 .02.02.02h1.01v-.392zm-5.646-.535l.206.123-.227.433-.227-.103.248-.453zm17.618-1.773c.103.247.247.494.37.721.145.206.289.412.475.619.206.247.432.474.66.68.06.062.143.144.205.185 0-.412-.103-.762 0-1.03l-.206-.207a13.763 13.763 0 00-.66-.556c-.164-.103-.308-.206-.473-.268-.124-.062-.227-.124-.371-.144zm-22.667 0c-.144.02-.268.082-.392.144-.144.062-.309.165-.453.268-.206.165-.433.35-.66.556-.061.062-.164.145-.226.207.103.268 0 .618 0 1.03.062-.04.165-.123.227-.185.226-.206.453-.433.659-.68.165-.207.33-.413.453-.619.145-.227.289-.474.392-.721zm10.695 1.67H23.8c-.02 0-.02.02-.02.04v.248c0 .02 0 .041.02.041h1.01v-.33zm1.627-5.237v.949h2.39l-1.133 2.308h1.216l.286 1.858.415-.27 2.534-1.65a8.493 8.493 0 00-2.534-2.164c-.043-.024-.087-.045-.13-.068l.11.192-.227.124-.248-.433.066-.036a8.332 8.332 0 00-2.745-.81zm-1.69-.02a8.896 8.896 0 00-2.958.805l.074.04-.247.433-.206-.103.122-.246c-.027.014-.055.026-.081.04a8.635 8.635 0 00-2.576 2.144l2.576 1.71.414.27.266-1.816h1.36l-1.195-2.308h2.452zm-12.322 1.38c-.433 1.073-.453 2-.082 2.846.103-.103.206-.206.268-.31.432-.577.474-1.298 0-2.205-.062-.104-.124-.206-.186-.33zm26.047 0a1.844 1.844 0 00-.186.33c-.474.908-.433 1.629 0 2.207.02.034.046.068.073.103l.174.206c.371-.845.371-1.773-.061-2.845zm-18.237 1.98l.206.124-.227.453-.226-.124.247-.453zm10.55.02l.227.433-.206.124-.227-.433.206-.123zm-15.269-2.267c-1.03.227-1.504.598-1.793 1.093-.185.33-.267.7-.33 1.092.104-.062.207-.144.33-.227.701-.474 1.34-1.01 1.731-1.793.02-.062.02-.103.062-.165zm19.926.02c-.041.042-.02.083 0 .145.371.783 1.03 1.32 1.71 1.793.124.083.248.165.351.227-.062-.392-.144-.763-.35-1.092-.268-.495-.742-.866-1.71-1.072zm-5.007 1.588l.227.433-.206.123-.247-.433.226-.123zm-9.85 0l.206.124-.226.412-.206-.103.226-.433zm9.48-.66l.247.454-.227.123-.227-.453.206-.124zm-9.13-.02l.227.123-.247.454-.227-.124.248-.453zm16.218-2.866c-.433.433-.454 1.196 0 2.206.103.206.247.453.412.7.227-.432.247-1.174.062-1.896-.104-.37-.248-.721-.474-1.01zm-23.409-.041c-.247.33-.37.68-.474 1.051-.185.722-.185 1.464 0 1.793.227-.144.35-.39.453-.597.474-1.01.433-1.773.021-2.247zm7.562 2.247l.207.124-.227.453-.227-.124.247-.453zm8.408.02l.226.433-.206.124-.247-.433.227-.124zm4.698-1.978v.185c.289.474.639.845 1.03 1.134.433 0 .742.062 1.03.165a1.748 1.748 0 00-.844-1.072l-.186-.124c-.309-.144-.66-.227-1.03-.288zm-17.824 0c-.495.061-.824.144-1.134.288a.658.658 0 00-.07.041l-.115.083c-.515.288-.742.66-.845 1.072.288-.103.597-.165.948-.124l.082-.041c.371-.289.742-.66 1.03-1.134zm23.697-4.185l.412.66c.041.061.02.103-.041.144l-.413.247-.535.31c-.082.06-.124.164-.165.267a.794.794 0 00-.02.578c.061.185.391.7.947 1.504.145.227.33.475.516.763l-.433.124h-.02c-.392-.66-.805-1.299-1.176-1.876-.288-.495-.33-.928-.103-1.258-.123.021-.267 0-.473-.061-.186-.062-.35-.124-.474-.227l.226-.33c.227.165.413.247.557.268.123 0 .247-.02.35-.062l.7-.412c.021-.02.042-.041.021-.062l-.247-.371.247-.144.124-.062zm-4.698 1.67c-.062.165-.124.309-.145.494-.082.33-.103.701 0 1.175.021.206.103.433.186.68.226-.061.474.166.639.372.04-1.052-.165-2.103-.68-2.721zm-20.277 0c-.515.618-.742 1.67-.68 2.72.165-.205.412-.432.639-.37.082-.248.144-.475.185-.68a2.798 2.798 0 000-1.176 3.468 3.468 0 00-.144-.494zm-3.544-.64l.309.186-.804 1.113c.042.02.083.02.124.041.268.124.392.289.433.495.02.165-.041.33-.165.495-.103.185-.31.33-.556.474l-.289-.268c.268-.103.453-.268.556-.433.042-.123.062-.227 0-.288-.061-.083-.164-.144-.33-.186l-.885 1.237-.268.37-.33-.184.66-.928.37-.536c-.103 0-.226.02-.33.02 0 .021-.02.021-.04.021l.04-.041.083-.124h.02l.124-.66-.165.227-.803 1.093-.31-.186 1.175-1.607.042-.083h.515l-.186.99h.103l.907-1.237zm29.55-.04l.597.948.062-.042.206-.103.206.33-.248.145.577.886-.309.185-.35-.536-.227-.35-.268.144.536.825-.33.186-.247-.392-.288-.433-.248.144.598.928.02.062h-.02l-.288.165-.64-.949-.226.124-.082.041-.206-.33.247-.165.062-.02-.062-.103-.577-.928.309-.185.206.309.453.721.248-.144-.536-.845.309-.186.536.846.103-.063.165-.102-.206-.33-.392-.598.31-.186zM9.22 11.276l.031.02 1.195.742.02-.042v.021l.33-.185c.206.144.413.35.64.618l-.29.226a2.58 2.58 0 00-.39-.37c-.021-.02-.063-.02-.063.02l-.288.371-1.67 2.33s0 .041.022.041l.494.31-.227.288-.433-.268-.329-.206c-.042-.02-.042-.042-.02-.083l.123-.185-1.175-.742c-.061-.021-.061-.062-.02-.103a3.7 3.7 0 00.453-.825l.37.082c-.102.207-.226.454-.39.68-.021.021 0 .021.02.042l.103.082.391-.536.269.186-.371.515.144.083.37-.536.186.103.103.062-.123.185-.268.35.144.103.082-.123.47-.66-.346-.04c.062-.145.103-.269.123-.393-.061.042-.123.062-.164.083h-.02l-.125-.247c-.02.082-.04.144-.061.206l-.35-.02c.04-.145.082-.269.102-.372-.123.062-.205.082-.226.124l-.145-.289c.062-.02.206-.103.392-.185 0-.124-.02-.227-.041-.351l.33-.062c0 .083.02.186.02.248l.227-.083.02-.02.124.288.288-.02v.226c.104-.02.186-.062.289-.082l.082.268.598-.825-.165-.103-.391.536-.268-.165.391-.536-.123-.082-.392.536-.268-.165.392-.557-.124-.062c-.02-.02-.04-.02-.062 0l-.35.495-.02-.02-.248-.145.288-.412.248-.33c.02-.041.062-.061.103-.02zm9.118 3.091a3.201 3.201 0 00-1.01.041c-.33.083-.618.206-.844.35-.31.207-.515.475-.7.743.226-.041.452-.144.7-.186.185-.02.391-.02.597.062.083-.041.165-.103.248-.124.535-.309.947-.598 1.01-.886zm15.228.041a3.2 3.2 0 00-1.01-.04c.042.287.475.576 1.01.885.062.02.145.083.248.124.205-.082.412-.082.597-.062.227.042.453.145.68.186-.165-.268-.371-.536-.68-.742a3.147 3.147 0 00-.845-.35zm8.634-2.535c.145.144.289.268.412.309.124.062.248.103.433.144.041.02.103.041.186.062l.04.35h-.02l.68 1.072-.062.31a2.328 2.328 0 01-.68-.165 2.499 2.499 0 01-.35-.145c.062.31.206.66.392 1.031l-.392.062a4.92 4.92 0 01-.37-1.32c-.166-.123-.351-.267-.537-.412-.185-.185-.391-.37-.618-.577-.02-.02-.041-.062-.062-.082l.041-.041.207-.227.391.371c.185.185.371.35.556.515 0-.185.021-.412.042-.618a4.14 4.14 0 01-.536-.371zm-8.386.165c-.062 1.01.164 1.752.597 2.205.144.165.33.289.536.371-.103-.391-.062-.721.062-1.071a8.788 8.788 0 00-.598-.846 9.952 9.952 0 00-.597-.66zm-16.733 0a9.95 9.95 0 00-.597.66c-.206.267-.413.535-.598.845.103.35.144.68.062 1.071.206-.082.37-.206.536-.37.432-.454.659-1.196.597-2.206zm10.468 1.855l.248.453-.227.124-.227-.453.206-.124zm-4.121 0l.206.103-.226.453-.227-.123.247-.433zm-3.276-.825c-.433-.04-.845-.061-1.278.021-.227.082-.33.103-.433.165-.453.185-.845.474-1.05.721.33.021.68.021 1.05-.02.145-.02.289-.062.433-.103a2.915 2.915 0 001.278-.784zm11.992.062c-.556-.123-.968-.103-1.4-.062.37.413.823.64 1.277.784.123.04.288.082.433.103.35.041.72.041 1.03.02-.206-.247-.598-.536-1.03-.721a.712.712 0 00-.103-.05zm-8.366.083l.227.123-.247.454-.206-.124.226-.453zm3.421.04l.247.434-.227.103-.247-.412.227-.124zm15.64-.577a2.94 2.94 0 00-.041.722c.124.062.247.124.35.165.124.062.247.103.35.144l-.02-.02-.371-.577zm-23.924-1.484c-.206.104-.33.186-.474.289-.35.247-.68.598-1.01.99.062.165.021.412-.02.783.433-.268.762-.536 1.03-.845.227-.289.371-.557.433-.845.041-.124.041-.248.041-.372zm13.106.021a.508.508 0 000 .35c.04.29.206.557.433.846.247.309.597.577 1.03.845-.062-.371-.103-.618-.041-.784a5.616 5.616 0 00-.99-.99c-.144-.102-.309-.184-.432-.267zM8.943 12.781a.383.383 0 01-.145.041c-.061.041-.102.062-.164.103-.02.041-.02.144-.042.33.042-.02.104-.041.186-.083.041-.02.103-.041.165-.061a.898.898 0 000-.33zm17.886-.186l.247.433-.226.124-.227-.454.206-.103zm-2.7-.041l.227.124-.247.453-.206-.124.227-.453zm-1.895-1.917c-1.649.226-2.864 1.072-3.36 1.958v.042c.351.082.784-.104 1.155-.083.948-.536 1.69-1.093 2.205-1.917zm6.408 0c.536.824 1.278 1.381 2.226 1.917.35-.02.783.165 1.154.083-.515-.928-1.731-1.774-3.38-2zm-2.163 1.278l.247.453-.227.124-.247-.453.227-.124zm-1.979-.02l.207.123-.227.433-.227-.124.247-.433zm16.753-.64c.021.206.021.412 0 .68 0 .063 0 .145-.02.227l-.412-.02c.04-.371.04-.66.02-.887l.35.02zM25.47 9.38c.618 0 1.113.495 1.113 1.114 0 .35-.165.66-.412.865l.185.351-.226.103-.165-.31c-.165.063-.31.104-.495.104-.165 0-.33-.041-.474-.103l-.165.309-.206-.124.145-.33c-.227-.206-.413-.515-.413-.865 0-.619.515-1.114 1.113-1.114zm16.238 1.443l.04.021h.372c.041.248.02.557-.02.907l-.29-.02h-.123c.041-.372.041-.68.02-.908zm-16.238-1.05a.73.73 0 00-.721.72c0 .392.33.722.72.722.413 0 .743-.33.743-.721a.735.735 0 00-.742-.722zm-6.264-5.258l.226.619c0 .062.042.144.042.206l1.957-.495.144.371-1.895.495c.062.165.144.309.247.433.515.639 1.38 1.113 2.638 1.422l-.289.371c-.124-.04-.247-.061-.33-.103-1.092-.35-1.875-.824-2.349-1.443 0 .083 0 .145-.02.227-.083.866-.536 1.65-1.34 2.35l-.412-.227c1.01-.763 1.422-1.731 1.277-2.886l-1.916.516-.124-.392 1.958-.515-.062-.207-.206-.618.454-.124zm10.962-.37s.02 0 .02.02l.763.227.557.185.226.042 1.834.576c.062.042.103.062.062.124l-.824 2.392c-.02.082-.062.103-.144.082l-.495-.165-.227-.062-.577-.185-.165-.062-.37 1.051-.083-.02-.309-.103.206-.598.165-.433-.227-.062-1.277-.412c-.062-.02-.103-.062-.062-.124l.824-2.412c.02-.041.041-.062.103-.062zm1.401 2.06l-.267.764.576.206.227.041.35.124c.042 0 .062 0 .062-.042l.248-.721-.783-.248-.227-.061-.186-.062zm-1.586-.494l-.248.742c-.02.02-.02.041.021.041l.762.248.392.103.268-.763-.783-.227-.412-.144zm1.978-.618l-.103.33-.165.432v.02l.227.042.968.31.268-.722c0-.041-.02-.041-.041-.062l-1.154-.35zm-1.546-.474c-.04-.021-.04-.021-.061.02l-.083.268-.165.454.227.082.804.247.165.062.267-.783-.577-.165z"/></g></svg>